{
  "version": "0.6.2b",
  "modules": [
    {
      "plugin": "Core",
      "version": "0.6.2b",
      "model": "AudioInterface",
      "params": [],
      "data": {
        "audio": {
          "driver": 5,
          "deviceName": "",
          "offset": 0,
          "maxChannels": 8,
          "sampleRate": 44100,
          "blockSize": 256
        }
      },
      "pos": [
        66,
        0
      ]
    },
    {
      "plugin": "Fundamental",
      "version": "0.6.1",
      "model": "VCMixer",
      "params": [
        {
          "paramId": 0,
          "value": 1.0
        },
        {
          "paramId": 1,
          "value": 1.0
        },
        {
          "paramId": 2,
          "value": 1.0
        },
        {
          "paramId": 3,
          "value": 1.0
        },
        {
          "paramId": 4,
          "value": 1.0
        }
      ],
      "pos": [
        56,
        0
      ]
    },
    {
      "plugin": "Fundamental",
      "version": "0.6.1",
      "model": "Mutes",
      "params": [
        {
          "paramId": 0,
          "value": 0.0
        },
        {
          "paramId": 1,
          "value": 0.0
        },
        {
          "paramId": 2,
          "value": 0.0
        },
        {
          "paramId": 3,
          "value": 0.0
        },
        {
          "paramId": 4,
          "value": 0.0
        },
        {
          "paramId": 5,
          "value": 0.0
        },
        {
          "paramId": 6,
          "value": 0.0
        },
        {
          "paramId": 7,
          "value": 0.0
        },
        {
          "paramId": 8,
          "value": 0.0
        },
        {
          "paramId": 9,
          "value": 0.0
        }
      ],
      "data": {
        "states": [
          true,
          true,
          true,
          true,
          true,
          true,
          true,
          true,
          true,
          true
        ]
      },
      "pos": [
        48,
        0
      ]
    }
  ],
  "wires": [
    {
      "color": "#0986ad",
      "outputModuleId": 2,
      "outputId": 0,
      "inputModuleId": 1,
      "inputId": 1
    },
    {
      "color": "#c9b70e",
      "outputModuleId": 2,
      "outputId": 1,
      "inputModuleId": 1,
      "inputId": 2
    },
    {
      "color": "#0c8e15",
      "outputModuleId": 2,
      "outputId": 2,
      "inputModuleId": 1,
      "inputId": 3
    },
    {
      "color": "#0986ad",
      "outputModuleId": 2,
      "outputId": 3,
      "inputModuleId": 1,
      "inputId": 4
    },
    {
      "color": "#c9b70e",
      "outputModuleId": 1,
      "outputId": 0,
      "inputModuleId": 0,
      "inputId": 0
    },
    {
      "color": "#c91847",
      "outputModuleId": 1,
      "outputId": 0,
      "inputModuleId": 0,
      "inputId": 1
    }
  ]
}