{
  "version": "1.1.6",
  "modules": [
    {
      "id": 0,
      "plugin": "Core",
      "version": "1.1.6",
      "model": "AudioInterface",
      "params": [],
      "data": {
        "audio": {
          "driver": 5,
          "deviceName": "Apple Inc.: Built-in Output",
          "offset": 0,
          "maxChannels": 8,
          "sampleRate": 44100,
          "blockSize": 256
        }
      },
      "pos": [
        34,
        0
      ]
    },
    {
      "id": 1,
      "plugin": "Fundamental",
      "version": "1.3.1",
      "model": "VCO",
      "params": [
        {
          "id": 0,
          "value": 1.0
        },
        {
          "id": 1,
          "value": 1.0
        },
        {
          "id": 2,
          "value": 1.61999631
        },
        {
          "id": 3,
          "value": 0.0
        },
        {
          "id": 4,
          "value": 0.0
        },
        {
          "id": 5,
          "value": 0.5
        },
        {
          "id": 6,
          "value": 0.0
        }
      ],
      "leftModuleId": 3,
      "rightModuleId": 2,
      "pos": [
        16,
        0
      ]
    },
    {
      "id": 2,
      "plugin": "Fundamental",
      "version": "1.3.1",
      "model": "VCO2",
      "params": [
        {
          "id": 0,
          "value": 1.0
        },
        {
          "id": 1,
          "value": 1.0
        },
        {
          "id": 2,
          "value": -7.6140008
        },
        {
          "id": 3,
          "value": 0.0
        },
        {
          "id": 4,
          "value": 1.0
        }
      ],
      "leftModuleId": 1,
      "pos": [
        26,
        0
      ]
    },
    {
      "id": 3,
      "plugin": "Core",
      "version": "1.1.6",
      "model": "Notes",
      "params": [],
      "rightModuleId": 1,
      "text": "VCO\n\nANLG = more musical\nHARD/SOFT pour le SYNC\n\n\n\nP. Width : largeur du SQR\npwm: external pulse width\n-- CV sur le P.WIDTH si on veut.\n\n\n\n\n\n\n\nV/OCT = 1V par octave\nFM: Frequency Modulation\n   --avec atenuateur knob\nSync: ",
      "pos": [
        0,
        0
      ]
    },
    {
      "id": 4,
      "plugin": "Core",
      "version": "1.1.6",
      "model": "Notes",
      "params": [],
      "text": "VCF\nVoltage Controlled Filter\n",
      "pos": [
        62,
        0
      ]
    },
    {
      "id": 5,
      "plugin": "Fundamental",
      "version": "1.3.1",
      "model": "VCF",
      "params": [
        {
          "id": 0,
          "value": 0.56799984
        },
        {
          "id": 1,
          "value": 0.5
        },
        {
          "id": 2,
          "value": 0.0
        },
        {
          "id": 3,
          "value": 0.349000037
        },
        {
          "id": 4,
          "value": 0.00300000003
        }
      ],
      "pos": [
        46,
        0
      ]
    },
    {
      "id": 6,
      "plugin": "Fundamental",
      "version": "1.3.1",
      "model": "VCA-1",
      "params": [
        {
          "id": 0,
          "value": 1.0
        },
        {
          "id": 1,
          "value": 1.0
        }
      ],
      "leftModuleId": 11,
      "rightModuleId": 7,
      "pos": [
        16,
        1
      ]
    },
    {
      "id": 7,
      "plugin": "Fundamental",
      "version": "1.3.1",
      "model": "VCA",
      "params": [
        {
          "id": 0,
          "value": 0.0
        },
        {
          "id": 1,
          "value": 1.0
        }
      ],
      "leftModuleId": 6,
      "pos": [
        19,
        1
      ]
    },
    {
      "id": 8,
      "plugin": "Fundamental",
      "version": "1.3.1",
      "model": "LFO",
      "params": [
        {
          "id": 0,
          "value": 1.0
        },
        {
          "id": 1,
          "value": 1.0
        },
        {
          "id": 2,
          "value": 1.09000027
        },
        {
          "id": 3,
          "value": 0.0
        },
        {
          "id": 4,
          "value": 0.0
        },
        {
          "id": 5,
          "value": 0.512000084
        },
        {
          "id": 6,
          "value": 0.0
        }
      ],
      "rightModuleId": 9,
      "pos": [
        46,
        1
      ]
    },
    {
      "id": 9,
      "plugin": "Fundamental",
      "version": "1.3.1",
      "model": "LFO2",
      "params": [
        {
          "id": 0,
          "value": 1.0
        },
        {
          "id": 1,
          "value": 1.0
        },
        {
          "id": 2,
          "value": -0.377000034
        },
        {
          "id": 3,
          "value": 0.598500013
        },
        {
          "id": 4,
          "value": 0.5
        }
      ],
      "leftModuleId": 8,
      "rightModuleId": 10,
      "pos": [
        56,
        1
      ]
    },
    {
      "id": 10,
      "plugin": "Core",
      "version": "1.1.6",
      "model": "Notes",
      "params": [],
      "leftModuleId": 9,
      "text": "LFO",
      "pos": [
        62,
        1
      ]
    },
    {
      "id": 11,
      "plugin": "Core",
      "version": "1.1.6",
      "model": "Notes",
      "params": [],
      "rightModuleId": 6,
      "text": "VCA\nVoltage Controlled Amplifier\n\nCV : control voltage\n\nModifie le \"volume\"",
      "pos": [
        0,
        1
      ]
    },
    {
      "id": 12,
      "plugin": "Fundamental",
      "version": "1.3.1",
      "model": "Scope",
      "params": [
        {
          "id": 0,
          "value": 2.0
        },
        {
          "id": 1,
          "value": 0.0
        },
        {
          "id": 2,
          "value": 2.0
        },
        {
          "id": 3,
          "value": -0.0299997926
        },
        {
          "id": 4,
          "value": -16.0
        },
        {
          "id": 5,
          "value": 0.0
        },
        {
          "id": 6,
          "value": 0.0300002694
        },
        {
          "id": 7,
          "value": 0.0
        }
      ],
      "data": {
        "lissajous": 0,
        "external": 0
      },
      "pos": [
        32,
        1
      ]
    },
    {
      "id": 13,
      "plugin": "Fundamental",
      "version": "1.3.1",
      "model": "8vert",
      "params": [
        {
          "id": 0,
          "value": 0.00500014843
        },
        {
          "id": 1,
          "value": 0.0
        },
        {
          "id": 2,
          "value": 0.0
        },
        {
          "id": 3,
          "value": 0.0
        },
        {
          "id": 4,
          "value": 0.0
        },
        {
          "id": 5,
          "value": 0.0
        },
        {
          "id": 6,
          "value": 0.0
        },
        {
          "id": 7,
          "value": 0.0
        }
      ],
      "rightModuleId": 14,
      "pos": [
        48,
        2
      ]
    },
    {
      "id": 14,
      "plugin": "Core",
      "version": "1.1.6",
      "model": "Notes",
      "params": [],
      "leftModuleId": 13,
      "text": "8 atenuvertors\n-1 to 1\n",
      "pos": [
        56,
        2
      ]
    },
    {
      "id": 15,
      "plugin": "Fundamental",
      "version": "1.3.1",
      "model": "Unity",
      "params": [
        {
          "id": 0,
          "value": 0.0
        },
        {
          "id": 1,
          "value": 0.0
        }
      ],
      "leftModuleId": 16,
      "data": {
        "merge": false
      },
      "pos": [
        37,
        2
      ]
    },
    {
      "id": 16,
      "plugin": "Fundamental",
      "version": "1.3.1",
      "model": "Delay",
      "params": [
        {
          "id": 0,
          "value": 0.5
        },
        {
          "id": 1,
          "value": 0.5
        },
        {
          "id": 2,
          "value": 0.5
        },
        {
          "id": 3,
          "value": 0.5
        }
      ],
      "leftModuleId": 17,
      "rightModuleId": 15,
      "pos": [
        29,
        2
      ]
    },
    {
      "id": 17,
      "plugin": "Fundamental",
      "version": "1.3.1",
      "model": "ADSR",
      "params": [
        {
          "id": 0,
          "value": 0.5
        },
        {
          "id": 1,
          "value": 0.5
        },
        {
          "id": 2,
          "value": 0.5
        },
        {
          "id": 3,
          "value": 0.5
        }
      ],
      "leftModuleId": 18,
      "rightModuleId": 16,
      "pos": [
        21,
        2
      ]
    },
    {
      "id": 18,
      "plugin": "Fundamental",
      "version": "1.3.1",
      "model": "Mutes",
      "params": [
        {
          "id": 0,
          "value": 0.0
        },
        {
          "id": 1,
          "value": 0.0
        },
        {
          "id": 2,
          "value": 0.0
        },
        {
          "id": 3,
          "value": 0.0
        },
        {
          "id": 4,
          "value": 0.0
        },
        {
          "id": 5,
          "value": 0.0
        },
        {
          "id": 6,
          "value": 0.0
        },
        {
          "id": 7,
          "value": 0.0
        },
        {
          "id": 8,
          "value": 0.0
        },
        {
          "id": 9,
          "value": 0.0
        }
      ],
      "rightModuleId": 17,
      "data": {
        "states": [
          true,
          true,
          true,
          true,
          true,
          true,
          true,
          true,
          true,
          true
        ]
      },
      "pos": [
        13,
        2
      ]
    },
    {
      "id": 19,
      "plugin": "Fundamental",
      "version": "1.3.1",
      "model": "SequentialSwitch1",
      "params": [
        {
          "id": 0,
          "value": 0.0
        }
      ],
      "leftModuleId": 22,
      "rightModuleId": 20,
      "pos": [
        29,
        3
      ]
    },
    {
      "id": 20,
      "plugin": "Fundamental",
      "version": "1.3.1",
      "model": "SequentialSwitch2",
      "params": [
        {
          "id": 0,
          "value": 0.0
        }
      ],
      "leftModuleId": 19,
      "pos": [
        32,
        3
      ]
    },
    {
      "id": 21,
      "plugin": "Fundamental",
      "version": "1.3.1",
      "model": "Octave",
      "params": [
        {
          "id": 0,
          "value": 0.0
        }
      ],
      "pos": [
        27,
        1
      ]
    },
    {
      "id": 22,
      "plugin": "Fundamental",
      "version": "1.3.1",
      "model": "SEQ3",
      "params": [
        {
          "id": 0,
          "value": 2.0
        },
        {
          "id": 1,
          "value": 0.0
        },
        {
          "id": 2,
          "value": 0.0
        },
        {
          "id": 3,
          "value": 8.0
        },
        {
          "id": 4,
          "value": 0.0
        },
        {
          "id": 5,
          "value": 0.0
        },
        {
          "id": 6,
          "value": 0.0
        },
        {
          "id": 7,
          "value": 0.0
        },
        {
          "id": 8,
          "value": 0.0
        },
        {
          "id": 9,
          "value": 0.0
        },
        {
          "id": 10,
          "value": 0.0
        },
        {
          "id": 11,
          "value": 0.0
        },
        {
          "id": 12,
          "value": 0.0
        },
        {
          "id": 13,
          "value": 0.0
        },
        {
          "id": 14,
          "value": 0.0
        },
        {
          "id": 15,
          "value": 0.0
        },
        {
          "id": 16,
          "value": 0.0
        },
        {
          "id": 17,
          "value": 0.0
        },
        {
          "id": 18,
          "value": 0.0
        },
        {
          "id": 19,
          "value": 0.0
        },
        {
          "id": 20,
          "value": 0.0
        },
        {
          "id": 21,
          "value": 0.0
        },
        {
          "id": 22,
          "value": 0.0
        },
        {
          "id": 23,
          "value": 0.0
        },
        {
          "id": 24,
          "value": 0.0
        },
        {
          "id": 25,
          "value": 0.0
        },
        {
          "id": 26,
          "value": 0.0
        },
        {
          "id": 27,
          "value": 0.0
        },
        {
          "id": 28,
          "value": 0.0
        },
        {
          "id": 29,
          "value": 0.0
        },
        {
          "id": 30,
          "value": 0.0
        },
        {
          "id": 31,
          "value": 0.0
        },
        {
          "id": 32,
          "value": 0.0
        },
        {
          "id": 33,
          "value": 0.0
        },
        {
          "id": 34,
          "value": 0.0
        },
        {
          "id": 35,
          "value": 0.0
        }
      ],
      "rightModuleId": 19,
      "data": {
        "running": true,
        "gates": [
          1,
          1,
          1,
          1,
          1,
          1,
          1,
          1
        ]
      },
      "pos": [
        7,
        3
      ]
    }
  ],
  "cables": [
    {
      "id": 30,
      "outputModuleId": 5,
      "outputId": 0,
      "inputModuleId": 12,
      "inputId": 0,
      "color": "#0986ad"
    },
    {
      "id": 31,
      "outputModuleId": 13,
      "outputId": 0,
      "inputModuleId": 5,
      "inputId": 0,
      "color": "#c91847"
    },
    {
      "id": 32,
      "outputModuleId": 8,
      "outputId": 0,
      "inputModuleId": 13,
      "inputId": 0,
      "color": "#0986ad"
    },
    {
      "id": 33,
      "outputModuleId": 21,
      "outputId": 0,
      "inputModuleId": 5,
      "inputId": 3,
      "color": "#0c8e15"
    },
    {
      "id": 34,
      "outputModuleId": 7,
      "outputId": 1,
      "inputModuleId": 21,
      "inputId": 0,
      "color": "#c9b70e"
    },
    {
      "id": 35,
      "outputModuleId": 5,
      "outputId": 0,
      "inputModuleId": 0,
      "inputId": 0,
      "color": "#c91847"
    },
    {
      "id": 36,
      "outputModuleId": 5,
      "outputId": 0,
      "inputModuleId": 0,
      "inputId": 1,
      "color": "#0c8e15"
    }
  ]
}