{
  "version": "1.1.6",
  "modules": [
    {
      "id": 24,
      "plugin": "ImpromptuModular",
      "version": "1.1.9",
      "model": "Clocked",
      "params": [
        {
          "id": 0,
          "value": 90.0
        },
        {
          "id": 1,
          "value": -2.0
        },
        {
          "id": 2,
          "value": 0.0
        },
        {
          "id": 3,
          "value": 0.0
        },
        {
          "id": 4,
          "value": 0.0
        },
        {
          "id": 5,
          "value": 0.0
        },
        {
          "id": 6,
          "value": 0.0
        },
        {
          "id": 7,
          "value": 0.0
        },
        {
          "id": 8,
          "value": 0.5
        },
        {
          "id": 9,
          "value": 0.5
        },
        {
          "id": 10,
          "value": 0.5
        },
        {
          "id": 11,
          "value": 0.5
        },
        {
          "id": 12,
          "value": 0.0
        },
        {
          "id": 13,
          "value": 0.0
        },
        {
          "id": 14,
          "value": 0.0
        },
        {
          "id": 15,
          "value": 0.0
        },
        {
          "id": 16,
          "value": 0.0
        },
        {
          "id": 17,
          "value": 0.0
        },
        {
          "id": 18,
          "value": 0.0
        },
        {
          "id": 19,
          "value": 0.0
        }
      ],
      "rightModuleId": 114,
      "data": {
        "panelTheme": 1,
        "running": true,
        "displayDelayNoteMode": true,
        "bpmDetectionMode": false,
        "resetOnStartStop": 0,
        "ppqn": 4,
        "resetClockOutputsHigh": true,
        "momentaryRunInput": true,
        "clockMaster": false
      },
      "pos": [
        0,
        0
      ]
    },
    {
      "id": 25,
      "plugin": "Core",
      "version": "1.1.6",
      "model": "AudioInterface",
      "params": [],
      "leftModuleId": 126,
      "rightModuleId": 128,
      "data": {
        "audio": {
          "driver": 7,
          "offset": 1129555529,
          "maxChannels": 8,
          "sampleRate": 48000,
          "blockSize": 512
        }
      },
      "pos": [
        107,
        0
      ]
    },
    {
      "id": 28,
      "plugin": "Valley",
      "version": "1.1.5",
      "model": "Plateau",
      "params": [
        {
          "id": 0,
          "value": 0.0
        },
        {
          "id": 1,
          "value": 1.0
        },
        {
          "id": 2,
          "value": 0.0
        },
        {
          "id": 3,
          "value": 8.66499901
        },
        {
          "id": 4,
          "value": 10.0
        },
        {
          "id": 5,
          "value": 0.5
        },
        {
          "id": 6,
          "value": 10.0
        },
        {
          "id": 7,
          "value": 0.475708216
        },
        {
          "id": 8,
          "value": 10.0
        },
        {
          "id": 9,
          "value": 7.43499994
        },
        {
          "id": 10,
          "value": 0.0
        },
        {
          "id": 11,
          "value": 0.5
        },
        {
          "id": 12,
          "value": 6.38000059
        },
        {
          "id": 13,
          "value": 0.0
        },
        {
          "id": 14,
          "value": 0.0
        },
        {
          "id": 15,
          "value": 0.0
        },
        {
          "id": 16,
          "value": 0.0
        },
        {
          "id": 17,
          "value": 0.0
        },
        {
          "id": 18,
          "value": 0.0
        },
        {
          "id": 19,
          "value": 0.0
        },
        {
          "id": 20,
          "value": 0.0
        },
        {
          "id": 21,
          "value": 0.0
        },
        {
          "id": 22,
          "value": 0.0
        },
        {
          "id": 23,
          "value": 0.0
        },
        {
          "id": 24,
          "value": 0.0
        },
        {
          "id": 25,
          "value": 0.0
        },
        {
          "id": 26,
          "value": 0.0
        },
        {
          "id": 27,
          "value": 0.0
        },
        {
          "id": 28,
          "value": 0.0
        },
        {
          "id": 29,
          "value": 0.0
        },
        {
          "id": 30,
          "value": 1.0
        }
      ],
      "leftModuleId": 115,
      "rightModuleId": 126,
      "data": {
        "frozen": false,
        "freezeToggle": false,
        "panelStyle": 0,
        "tuned": 0,
        "diffuseInput": 1,
        "preDelayCVSens": 0,
        "inputSensitivity": 0,
        "outputSaturation": 0
      },
      "pos": [
        86,
        0
      ]
    },
    {
      "id": 114,
      "plugin": "MindMeldModular",
      "version": "1.1.12",
      "model": "MixMasterJr",
      "params": [
        {
          "id": 0,
          "value": 1.0
        },
        {
          "id": 1,
          "value": 1.0
        },
        {
          "id": 2,
          "value": 1.0
        },
        {
          "id": 3,
          "value": 1.0
        },
        {
          "id": 4,
          "value": 1.0
        },
        {
          "id": 5,
          "value": 1.0
        },
        {
          "id": 6,
          "value": 1.0
        },
        {
          "id": 7,
          "value": 1.0
        },
        {
          "id": 8,
          "value": 1.0
        },
        {
          "id": 9,
          "value": 1.0
        },
        {
          "id": 10,
          "value": 0.5
        },
        {
          "id": 11,
          "value": 0.5
        },
        {
          "id": 12,
          "value": 0.5
        },
        {
          "id": 13,
          "value": 0.5
        },
        {
          "id": 14,
          "value": 0.5
        },
        {
          "id": 15,
          "value": 0.5
        },
        {
          "id": 16,
          "value": 0.5
        },
        {
          "id": 17,
          "value": 0.5
        },
        {
          "id": 18,
          "value": 0.5
        },
        {
          "id": 19,
          "value": 0.5
        },
        {
          "id": 20,
          "value": 0.0
        },
        {
          "id": 21,
          "value": 0.0
        },
        {
          "id": 22,
          "value": 0.0
        },
        {
          "id": 23,
          "value": 0.0
        },
        {
          "id": 24,
          "value": 0.0
        },
        {
          "id": 25,
          "value": 0.0
        },
        {
          "id": 26,
          "value": 0.0
        },
        {
          "id": 27,
          "value": 0.0
        },
        {
          "id": 28,
          "value": 0.0
        },
        {
          "id": 29,
          "value": 0.0
        },
        {
          "id": 30,
          "value": 0.0
        },
        {
          "id": 31,
          "value": 0.0
        },
        {
          "id": 32,
          "value": 0.0
        },
        {
          "id": 33,
          "value": 0.0
        },
        {
          "id": 34,
          "value": 0.0
        },
        {
          "id": 35,
          "value": 0.0
        },
        {
          "id": 36,
          "value": 0.0
        },
        {
          "id": 37,
          "value": 0.0
        },
        {
          "id": 38,
          "value": 0.0
        },
        {
          "id": 39,
          "value": 0.0
        },
        {
          "id": 40,
          "value": 1.0
        },
        {
          "id": 41,
          "value": 1.0
        },
        {
          "id": 42,
          "value": 0.0
        },
        {
          "id": 43,
          "value": 1.0
        },
        {
          "id": 44,
          "value": 0.0
        },
        {
          "id": 45,
          "value": 0.0
        },
        {
          "id": 46,
          "value": 0.0
        },
        {
          "id": 47,
          "value": 0.0
        },
        {
          "id": 48,
          "value": 0.0
        },
        {
          "id": 49,
          "value": 0.0
        },
        {
          "id": 50,
          "value": 0.0
        },
        {
          "id": 51,
          "value": 0.0
        },
        {
          "id": 52,
          "value": 13.0
        },
        {
          "id": 53,
          "value": 13.0
        },
        {
          "id": 54,
          "value": 13.0
        },
        {
          "id": 55,
          "value": 13.0
        },
        {
          "id": 56,
          "value": 13.0
        },
        {
          "id": 57,
          "value": 13.0
        },
        {
          "id": 58,
          "value": 13.0
        },
        {
          "id": 59,
          "value": 13.0
        },
        {
          "id": 60,
          "value": 20010.0
        },
        {
          "id": 61,
          "value": 20010.0
        },
        {
          "id": 62,
          "value": 20010.0
        },
        {
          "id": 63,
          "value": 20010.0
        },
        {
          "id": 64,
          "value": 20010.0
        },
        {
          "id": 65,
          "value": 20010.0
        },
        {
          "id": 66,
          "value": 20010.0
        },
        {
          "id": 67,
          "value": 20010.0
        },
        {
          "id": 68,
          "value": 13.0
        },
        {
          "id": 69,
          "value": 13.0
        },
        {
          "id": 70,
          "value": 20010.0
        },
        {
          "id": 71,
          "value": 20010.0
        }
      ],
      "leftModuleId": 24,
      "rightModuleId": 115,
      "data": {
        "trackLabels": "BASLPERCBASS-04--05--06--07--08-GRP1GRP2",
        "panLawMono": 1,
        "panLawStereo": 1,
        "directOutsMode": 3,
        "directOutsSkipGroupedTracks": 0,
        "auxSendsMode": 3,
        "groupsControlTrackSendLevels": 0,
        "auxReturnsMutedWhenMainSolo": 0,
        "auxReturnsSolosMuteDry": 0,
        "chainMode": 1,
        "colorAndCloak": 117440512,
        "symmetricalFade": false,
        "fadeCvOutsWithVolCv": false,
        "linkBitMask": 0,
        "filterPos": 0,
        "groupedAuxReturnFeedbackProtection": 1,
        "ecoMode": 65535,
        "faders": [
          1.0,
          1.0,
          1.0,
          1.0,
          1.0,
          1.0,
          1.0,
          1.0,
          1.0,
          1.0
        ],
        "momentaryCvButtons": 1,
        "masterFaderScalesSends": 0,
        "linearVolCvInputs": 0,
        "id_t0_gainAdjust": 0.630957365,
        "id_t0_fadeRate": 0.0,
        "id_t0_fadeProfile": 0.0,
        "id_t0_directOutsMode": 3,
        "id_t0_auxSendsMode": 3,
        "id_t0_panLawStereo": 1,
        "id_t0_vuColorThemeLocal": 0,
        "id_t0_filterPos": 1,
        "id_t0_dispColorLocal": 0,
        "id_t0_polyStereo": 0,
        "id_t0_panCvLevel": 1.0,
        "id_t0_stereoWidth": 1.0,
        "id_t0_invertInput": 0,
        "id_t1_gainAdjust": 1.0,
        "id_t1_fadeRate": 0.0,
        "id_t1_fadeProfile": 0.0,
        "id_t1_directOutsMode": 3,
        "id_t1_auxSendsMode": 3,
        "id_t1_panLawStereo": 1,
        "id_t1_vuColorThemeLocal": 0,
        "id_t1_filterPos": 1,
        "id_t1_dispColorLocal": 0,
        "id_t1_polyStereo": 0,
        "id_t1_panCvLevel": 0.544000328,
        "id_t1_stereoWidth": 1.0,
        "id_t1_invertInput": 0,
        "id_t2_gainAdjust": 0.628058374,
        "id_t2_fadeRate": 0.0,
        "id_t2_fadeProfile": 0.0,
        "id_t2_directOutsMode": 3,
        "id_t2_auxSendsMode": 3,
        "id_t2_panLawStereo": 1,
        "id_t2_vuColorThemeLocal": 0,
        "id_t2_filterPos": 1,
        "id_t2_dispColorLocal": 0,
        "id_t2_polyStereo": 0,
        "id_t2_panCvLevel": 1.0,
        "id_t2_stereoWidth": 1.0,
        "id_t2_invertInput": 0,
        "id_t3_gainAdjust": 1.0,
        "id_t3_fadeRate": 0.0,
        "id_t3_fadeProfile": 0.0,
        "id_t3_directOutsMode": 3,
        "id_t3_auxSendsMode": 3,
        "id_t3_panLawStereo": 1,
        "id_t3_vuColorThemeLocal": 0,
        "id_t3_filterPos": 1,
        "id_t3_dispColorLocal": 0,
        "id_t3_polyStereo": 0,
        "id_t3_panCvLevel": 1.0,
        "id_t3_stereoWidth": 1.0,
        "id_t3_invertInput": 0,
        "id_t4_gainAdjust": 1.0,
        "id_t4_fadeRate": 0.0,
        "id_t4_fadeProfile": 0.0,
        "id_t4_directOutsMode": 3,
        "id_t4_auxSendsMode": 3,
        "id_t4_panLawStereo": 1,
        "id_t4_vuColorThemeLocal": 0,
        "id_t4_filterPos": 1,
        "id_t4_dispColorLocal": 0,
        "id_t4_polyStereo": 0,
        "id_t4_panCvLevel": 1.0,
        "id_t4_stereoWidth": 1.0,
        "id_t4_invertInput": 0,
        "id_t5_gainAdjust": 1.0,
        "id_t5_fadeRate": 0.0,
        "id_t5_fadeProfile": 0.0,
        "id_t5_directOutsMode": 3,
        "id_t5_auxSendsMode": 3,
        "id_t5_panLawStereo": 1,
        "id_t5_vuColorThemeLocal": 0,
        "id_t5_filterPos": 1,
        "id_t5_dispColorLocal": 0,
        "id_t5_polyStereo": 0,
        "id_t5_panCvLevel": 1.0,
        "id_t5_stereoWidth": 1.0,
        "id_t5_invertInput": 0,
        "id_t6_gainAdjust": 1.0,
        "id_t6_fadeRate": 0.0,
        "id_t6_fadeProfile": 0.0,
        "id_t6_directOutsMode": 3,
        "id_t6_auxSendsMode": 3,
        "id_t6_panLawStereo": 1,
        "id_t6_vuColorThemeLocal": 0,
        "id_t6_filterPos": 1,
        "id_t6_dispColorLocal": 0,
        "id_t6_polyStereo": 0,
        "id_t6_panCvLevel": 1.0,
        "id_t6_stereoWidth": 1.0,
        "id_t6_invertInput": 0,
        "id_t7_gainAdjust": 1.0,
        "id_t7_fadeRate": 0.0,
        "id_t7_fadeProfile": 0.0,
        "id_t7_directOutsMode": 3,
        "id_t7_auxSendsMode": 3,
        "id_t7_panLawStereo": 1,
        "id_t7_vuColorThemeLocal": 0,
        "id_t7_filterPos": 1,
        "id_t7_dispColorLocal": 0,
        "id_t7_polyStereo": 0,
        "id_t7_panCvLevel": 1.0,
        "id_t7_stereoWidth": 1.0,
        "id_t7_invertInput": 0,
        "id_g0_fadeRate": 0.0,
        "id_g0_fadeProfile": 0.0,
        "id_g0_directOutsMode": 3,
        "id_g0_auxSendsMode": 3,
        "id_g0_panLawStereo": 1,
        "id_g0_vuColorThemeLocal": 0,
        "id_g0_filterPos": 1,
        "id_g0_dispColorLocal": 0,
        "id_g0_panCvLevel": 1.0,
        "id_g0_stereoWidth": 1.0,
        "id_g1_fadeRate": 0.0,
        "id_g1_fadeProfile": 0.0,
        "id_g1_directOutsMode": 3,
        "id_g1_auxSendsMode": 3,
        "id_g1_panLawStereo": 1,
        "id_g1_vuColorThemeLocal": 0,
        "id_g1_filterPos": 1,
        "id_g1_dispColorLocal": 0,
        "id_g1_panCvLevel": 1.0,
        "id_g1_stereoWidth": 1.0,
        "dcBlock": false,
        "clipping": 0,
        "fadeRate": 0.0,
        "fadeProfile": 0.0,
        "vuColorThemeLocal": 0,
        "dispColorLocal": 0,
        "chainOnly": 0,
        "dimGain": 0.251190007,
        "masterLabel": "MASTER"
      },
      "pos": [
        20,
        0
      ]
    },
    {
      "id": 115,
      "plugin": "MindMeldModular",
      "version": "1.1.12",
      "model": "AuxExpanderJr",
      "params": [
        {
          "id": 0,
          "value": 0.414000064
        },
        {
          "id": 1,
          "value": 0.0
        },
        {
          "id": 2,
          "value": 0.0
        },
        {
          "id": 3,
          "value": 0.0
        },
        {
          "id": 4,
          "value": 0.395999998
        },
        {
          "id": 5,
          "value": 0.0
        },
        {
          "id": 6,
          "value": 0.0
        },
        {
          "id": 7,
          "value": 0.0
        },
        {
          "id": 8,
          "value": 0.0
        },
        {
          "id": 9,
          "value": 0.0
        },
        {
          "id": 10,
          "value": 0.0
        },
        {
          "id": 11,
          "value": 0.0
        },
        {
          "id": 12,
          "value": 0.0
        },
        {
          "id": 13,
          "value": 0.0
        },
        {
          "id": 14,
          "value": 0.0
        },
        {
          "id": 15,
          "value": 0.0
        },
        {
          "id": 16,
          "value": 0.0
        },
        {
          "id": 17,
          "value": 0.0
        },
        {
          "id": 18,
          "value": 0.0
        },
        {
          "id": 19,
          "value": 0.0
        },
        {
          "id": 20,
          "value": 0.0
        },
        {
          "id": 21,
          "value": 0.0
        },
        {
          "id": 22,
          "value": 0.0
        },
        {
          "id": 23,
          "value": 0.0
        },
        {
          "id": 24,
          "value": 0.0
        },
        {
          "id": 25,
          "value": 0.0
        },
        {
          "id": 26,
          "value": 0.0
        },
        {
          "id": 27,
          "value": 0.0
        },
        {
          "id": 28,
          "value": 0.0
        },
        {
          "id": 29,
          "value": 0.0
        },
        {
          "id": 30,
          "value": 0.0
        },
        {
          "id": 31,
          "value": 0.0
        },
        {
          "id": 32,
          "value": 0.0
        },
        {
          "id": 33,
          "value": 0.0
        },
        {
          "id": 34,
          "value": 0.0
        },
        {
          "id": 35,
          "value": 0.0
        },
        {
          "id": 36,
          "value": 0.0
        },
        {
          "id": 37,
          "value": 0.0
        },
        {
          "id": 38,
          "value": 0.0
        },
        {
          "id": 39,
          "value": 0.0
        },
        {
          "id": 40,
          "value": 0.0
        },
        {
          "id": 41,
          "value": 0.0
        },
        {
          "id": 42,
          "value": 0.0
        },
        {
          "id": 43,
          "value": 0.0
        },
        {
          "id": 44,
          "value": 0.0
        },
        {
          "id": 45,
          "value": 0.0
        },
        {
          "id": 46,
          "value": 0.0
        },
        {
          "id": 47,
          "value": 0.0
        },
        {
          "id": 48,
          "value": 0.0
        },
        {
          "id": 49,
          "value": 0.0
        },
        {
          "id": 50,
          "value": 0.0
        },
        {
          "id": 51,
          "value": 0.0
        },
        {
          "id": 52,
          "value": 0.0
        },
        {
          "id": 53,
          "value": 0.0
        },
        {
          "id": 54,
          "value": 0.0
        },
        {
          "id": 55,
          "value": 0.0
        },
        {
          "id": 56,
          "value": 0.0
        },
        {
          "id": 57,
          "value": 0.0
        },
        {
          "id": 58,
          "value": 0.0
        },
        {
          "id": 59,
          "value": 0.0
        },
        {
          "id": 60,
          "value": 0.0
        },
        {
          "id": 61,
          "value": 0.0
        },
        {
          "id": 62,
          "value": 1.0
        },
        {
          "id": 63,
          "value": 1.0
        },
        {
          "id": 64,
          "value": 1.0
        },
        {
          "id": 65,
          "value": 1.0
        },
        {
          "id": 66,
          "value": 0.5
        },
        {
          "id": 67,
          "value": 0.5
        },
        {
          "id": 68,
          "value": 0.5
        },
        {
          "id": 69,
          "value": 0.5
        },
        {
          "id": 70,
          "value": 1.0
        },
        {
          "id": 71,
          "value": 1.0
        },
        {
          "id": 72,
          "value": 1.0
        },
        {
          "id": 73,
          "value": 1.0
        }
      ],
      "leftModuleId": 114,
      "rightModuleId": 28,
      "data": {
        "directOutsModeLocal": 50529027,
        "panLawStereoLocal": 16843009,
        "vuColorThemeLocal": 0,
        "dispColorAuxLocal": [
          0,
          0,
          0,
          0
        ],
        "auxFadeRatesAndProfiles": [
          0.0,
          0.0,
          0.0,
          0.0,
          0.0,
          0.0,
          0.0,
          0.0
        ],
        "auxLabels": "VerbAUXBAUXCAUXD",
        "id_x0_hpfCutoffFreq": 198.556,
        "id_x0_lpfCutoffFreq": 20010.0,
        "id_x0_stereoWidth": 1.0,
        "id_x1_hpfCutoffFreq": 13.0,
        "id_x1_lpfCutoffFreq": 20010.0,
        "id_x1_stereoWidth": 1.0,
        "id_x2_hpfCutoffFreq": 13.0,
        "id_x2_lpfCutoffFreq": 20010.0,
        "id_x2_stereoWidth": 1.0,
        "id_x3_hpfCutoffFreq": 13.0,
        "id_x3_lpfCutoffFreq": 20010.0,
        "id_x3_stereoWidth": 1.0,
        "panCvLevels": [
          1.0,
          1.0,
          1.0,
          1.0
        ]
      },
      "pos": [
        56,
        0
      ]
    },
    {
      "id": 126,
      "plugin": "MindMeldModular",
      "version": "1.1.12",
      "model": "BassMaster",
      "params": [
        {
          "id": 0,
          "value": 120.0
        },
        {
          "id": 1,
          "value": 0.0
        },
        {
          "id": 2,
          "value": 0.0
        },
        {
          "id": 3,
          "value": 1.0
        },
        {
          "id": 4,
          "value": 0.0
        },
        {
          "id": 5,
          "value": 0.0
        },
        {
          "id": 6,
          "value": 0.0
        },
        {
          "id": 7,
          "value": 0.0
        },
        {
          "id": 8,
          "value": 0.0
        },
        {
          "id": 9,
          "value": 0.0
        },
        {
          "id": 10,
          "value": 1.0
        }
      ],
      "leftModuleId": 28,
      "rightModuleId": 25,
      "data": {
        "miscSettings": 0
      },
      "pos": [
        98,
        0
      ]
    },
    {
      "id": 128,
      "plugin": "Stoermelder-P1",
      "version": "1.8.0",
      "model": "Mb",
      "params": [],
      "leftModuleId": 25,
      "data": {
        "mode": 1
      },
      "pos": [
        117,
        0
      ]
    },
    {
      "id": 281,
      "plugin": "Instruo",
      "version": "1.1.0",
      "model": "harmonaig",
      "params": [
        {
          "id": 0,
          "value": 1.0
        },
        {
          "id": 1,
          "value": 0.0
        },
        {
          "id": 2,
          "value": 0.0
        },
        {
          "id": 3,
          "value": 0.0
        },
        {
          "id": 4,
          "value": 1.0
        },
        {
          "id": 5,
          "value": 0.0
        },
        {
          "id": 6,
          "value": 0.0
        },
        {
          "id": 7,
          "value": 1.0
        },
        {
          "id": 8,
          "value": 0.0
        },
        {
          "id": 9,
          "value": 1.0
        },
        {
          "id": 10,
          "value": 0.0
        },
        {
          "id": 11,
          "value": 0.0
        },
        {
          "id": 12,
          "value": 0.0
        },
        {
          "id": 13,
          "value": 0.0
        },
        {
          "id": 14,
          "value": 0.0
        },
        {
          "id": 15,
          "value": 1.10000002
        },
        {
          "id": 16,
          "value": 0.0
        },
        {
          "id": 17,
          "value": 0.0
        },
        {
          "id": 18,
          "value": 0.0
        },
        {
          "id": 19,
          "value": 0.0
        },
        {
          "id": 20,
          "value": 0.0
        },
        {
          "id": 21,
          "value": 0.0
        },
        {
          "id": 22,
          "value": 0.0
        },
        {
          "id": 23,
          "value": 0.0
        },
        {
          "id": 24,
          "value": 1.0
        },
        {
          "id": 25,
          "value": 0.0
        },
        {
          "id": 26,
          "value": 0.0
        },
        {
          "id": 27,
          "value": 0.0
        },
        {
          "id": 28,
          "value": 1.0
        },
        {
          "id": 29,
          "value": 0.0
        },
        {
          "id": 30,
          "value": 0.0
        },
        {
          "id": 31,
          "value": 1.0
        },
        {
          "id": 32,
          "value": 0.0
        },
        {
          "id": 33,
          "value": 1.0
        },
        {
          "id": 34,
          "value": 0.0
        },
        {
          "id": 35,
          "value": 0.0
        },
        {
          "id": 36,
          "value": 1.0
        },
        {
          "id": 37,
          "value": 0.0
        },
        {
          "id": 38,
          "value": 4.0
        },
        {
          "id": 39,
          "value": 0.0
        },
        {
          "id": 40,
          "value": 0.0
        },
        {
          "id": 41,
          "value": 0.0
        },
        {
          "id": 42,
          "value": 1.0
        },
        {
          "id": 43,
          "value": 1.0
        },
        {
          "id": 44,
          "value": 1.0
        },
        {
          "id": 45,
          "value": 1.0
        }
      ],
      "rightModuleId": 316,
      "data": {
        "mode": 0
      },
      "pos": [
        20,
        1
      ]
    },
    {
      "id": 282,
      "plugin": "Geodesics",
      "version": "1.2.0",
      "model": "Ions",
      "params": [
        {
          "id": 0,
          "value": 0.0
        },
        {
          "id": 1,
          "value": 0.0
        },
        {
          "id": 2,
          "value": 0.392175794
        },
        {
          "id": 3,
          "value": 0.119924545
        },
        {
          "id": 4,
          "value": 0.576236129
        },
        {
          "id": 5,
          "value": 0.372121096
        },
        {
          "id": 6,
          "value": 0.428808093
        },
        {
          "id": 7,
          "value": 0.731500924
        },
        {
          "id": 8,
          "value": 0.531551063
        },
        {
          "id": 9,
          "value": 0.729029179
        },
        {
          "id": 10,
          "value": 0.198765099
        },
        {
          "id": 11,
          "value": 0.652605236
        },
        {
          "id": 12,
          "value": 0.356474936
        },
        {
          "id": 13,
          "value": 0.57090801
        },
        {
          "id": 14,
          "value": 0.429880142
        },
        {
          "id": 15,
          "value": 0.0846014023
        },
        {
          "id": 16,
          "value": 0.00238776207
        },
        {
          "id": 17,
          "value": 1.0
        },
        {
          "id": 18,
          "value": 0.0
        },
        {
          "id": 19,
          "value": 0.0
        },
        {
          "id": 20,
          "value": 0.0
        },
        {
          "id": 21,
          "value": 0.0
        },
        {
          "id": 22,
          "value": 0.0
        },
        {
          "id": 23,
          "value": 0.0
        },
        {
          "id": 24,
          "value": 0.0
        },
        {
          "id": 25,
          "value": 0.0
        },
        {
          "id": 26,
          "value": 0.0
        },
        {
          "id": 27,
          "value": 0.0
        }
      ],
      "data": {
        "panelTheme": 1,
        "running": true,
        "resetOnRun": false,
        "quantize": 3,
        "uncertainty": false,
        "stepIndexes0": 0,
        "stepIndexes1": 0,
        "states0": 0,
        "states1": 0,
        "ranges0": 0,
        "ranges1": 2,
        "leap": false
      },
      "pos": [
        0,
        1
      ]
    },
    {
      "id": 283,
      "plugin": "VultModulesFree",
      "version": "1.14",
      "model": "Basal",
      "params": [
        {
          "id": 0,
          "value": 0.0
        },
        {
          "id": 1,
          "value": 0.225000054
        },
        {
          "id": 2,
          "value": 0.276000023
        },
        {
          "id": 3,
          "value": 0.372000009
        },
        {
          "id": 4,
          "value": 0.14850001
        },
        {
          "id": 5,
          "value": 0.174000025
        }
      ],
      "leftModuleId": 316,
      "rightModuleId": 293,
      "pos": [
        42,
        1
      ]
    },
    {
      "id": 293,
      "plugin": "VultModulesFree",
      "version": "1.14",
      "model": "Basal",
      "params": [
        {
          "id": 0,
          "value": 0.0
        },
        {
          "id": 1,
          "value": 0.213000029
        },
        {
          "id": 2,
          "value": 0.253499985
        },
        {
          "id": 3,
          "value": 0.269999981
        },
        {
          "id": 4,
          "value": 0.231000021
        },
        {
          "id": 5,
          "value": 0.357000023
        }
      ],
      "leftModuleId": 283,
      "rightModuleId": 302,
      "pos": [
        48,
        1
      ]
    },
    {
      "id": 302,
      "plugin": "VultModulesFree",
      "version": "1.14",
      "model": "Basal",
      "params": [
        {
          "id": 0,
          "value": 0.0
        },
        {
          "id": 1,
          "value": 0.213000029
        },
        {
          "id": 2,
          "value": 0.140999988
        },
        {
          "id": 3,
          "value": -0.228
        },
        {
          "id": 4,
          "value": 0.157500014
        },
        {
          "id": 5,
          "value": -0.252000034
        }
      ],
      "leftModuleId": 293,
      "rightModuleId": 303,
      "pos": [
        54,
        1
      ]
    },
    {
      "id": 303,
      "plugin": "VultModulesFree",
      "version": "1.14",
      "model": "Basal",
      "params": [
        {
          "id": 0,
          "value": 0.0
        },
        {
          "id": 1,
          "value": 0.213000029
        },
        {
          "id": 2,
          "value": 0.241500035
        },
        {
          "id": 3,
          "value": -0.219000012
        },
        {
          "id": 4,
          "value": 0.163500011
        },
        {
          "id": 5,
          "value": -0.438000023
        }
      ],
      "leftModuleId": 302,
      "rightModuleId": 304,
      "pos": [
        60,
        1
      ]
    },
    {
      "id": 304,
      "plugin": "Fundamental",
      "version": "1.4.0",
      "model": "VCMixer",
      "params": [
        {
          "id": 0,
          "value": 0.369999915
        },
        {
          "id": 1,
          "value": 1.0
        },
        {
          "id": 2,
          "value": 1.0
        },
        {
          "id": 3,
          "value": 1.0
        },
        {
          "id": 4,
          "value": 1.0
        }
      ],
      "leftModuleId": 303,
      "rightModuleId": 313,
      "pos": [
        66,
        1
      ]
    },
    {
      "id": 305,
      "plugin": "NYSTHI",
      "version": "1.0.17",
      "model": "AttackDecay",
      "params": [
        {
          "id": 0,
          "value": 0.486000121
        },
        {
          "id": 1,
          "value": 0.470499992
        },
        {
          "id": 2,
          "value": 0.0
        },
        {
          "id": 3,
          "value": 1.0
        },
        {
          "id": 4,
          "value": 0.0
        },
        {
          "id": 5,
          "value": 0.0
        }
      ],
      "leftModuleId": 314,
      "rightModuleId": 306,
      "data": {
        "m_looped": false
      },
      "pos": [
        94,
        1
      ]
    },
    {
      "id": 306,
      "plugin": "NYSTHI",
      "version": "1.0.17",
      "model": "AttackDecay",
      "params": [
        {
          "id": 0,
          "value": 0.580499947
        },
        {
          "id": 1,
          "value": 0.452499986
        },
        {
          "id": 2,
          "value": 0.0
        },
        {
          "id": 3,
          "value": 1.0
        },
        {
          "id": 4,
          "value": 0.0
        },
        {
          "id": 5,
          "value": 0.0
        }
      ],
      "leftModuleId": 305,
      "rightModuleId": 315,
      "data": {
        "m_looped": false
      },
      "pos": [
        96,
        1
      ]
    },
    {
      "id": 307,
      "plugin": "NYSTHI",
      "version": "1.0.17",
      "model": "AttackDecay",
      "params": [
        {
          "id": 0,
          "value": 0.387000054
        },
        {
          "id": 1,
          "value": 0.533500075
        },
        {
          "id": 2,
          "value": 0.0
        },
        {
          "id": 3,
          "value": 1.0
        },
        {
          "id": 4,
          "value": 0.0
        },
        {
          "id": 5,
          "value": 0.0
        }
      ],
      "leftModuleId": 315,
      "rightModuleId": 308,
      "data": {
        "m_looped": false
      },
      "pos": [
        104,
        1
      ]
    },
    {
      "id": 308,
      "plugin": "NYSTHI",
      "version": "1.0.17",
      "model": "AttackDecay",
      "params": [
        {
          "id": 0,
          "value": 0.385500044
        },
        {
          "id": 1,
          "value": 0.698500037
        },
        {
          "id": 2,
          "value": 0.0
        },
        {
          "id": 3,
          "value": 1.0
        },
        {
          "id": 4,
          "value": 0.0
        },
        {
          "id": 5,
          "value": 0.0
        }
      ],
      "leftModuleId": 307,
      "data": {
        "m_looped": false
      },
      "pos": [
        106,
        1
      ]
    },
    {
      "id": 313,
      "plugin": "AlrightDevices",
      "version": "1.0.3",
      "model": "Chronoblob2",
      "params": [
        {
          "id": 0,
          "value": 0.590000093
        },
        {
          "id": 1,
          "value": 0.267499745
        },
        {
          "id": 2,
          "value": 0.5
        },
        {
          "id": 3,
          "value": 0.0
        },
        {
          "id": 4,
          "value": 0.0
        },
        {
          "id": 5,
          "value": 0.309000015
        },
        {
          "id": 6,
          "value": 0.0
        },
        {
          "id": 7,
          "value": 0.0
        },
        {
          "id": 8,
          "value": 1.0
        },
        {
          "id": 9,
          "value": 0.0
        }
      ],
      "leftModuleId": 304,
      "rightModuleId": 314,
      "data": {
        "delay_mode": 1,
        "hold_behavior": 0,
        "sync_prescaler": 6
      },
      "pos": [
        76,
        1
      ]
    },
    {
      "id": 314,
      "plugin": "AudibleInstruments",
      "version": "1.5.0",
      "model": "Branches",
      "params": [
        {
          "id": 0,
          "value": 0.711499929
        },
        {
          "id": 1,
          "value": 0.800000072
        },
        {
          "id": 2,
          "value": 0.0
        },
        {
          "id": 3,
          "value": 0.0
        }
      ],
      "leftModuleId": 313,
      "rightModuleId": 305,
      "data": {
        "modes": [
          false,
          false
        ]
      },
      "pos": [
        88,
        1
      ]
    },
    {
      "id": 315,
      "plugin": "AudibleInstruments",
      "version": "1.5.0",
      "model": "Branches",
      "params": [
        {
          "id": 0,
          "value": 0.807500005
        },
        {
          "id": 1,
          "value": 0.822500169
        },
        {
          "id": 2,
          "value": 0.0
        },
        {
          "id": 3,
          "value": 0.0
        }
      ],
      "leftModuleId": 306,
      "rightModuleId": 307,
      "data": {
        "modes": [
          false,
          false
        ]
      },
      "pos": [
        98,
        1
      ]
    },
    {
      "id": 316,
      "plugin": "Instruo",
      "version": "1.1.0",
      "model": "ochd",
      "params": [
        {
          "id": 0,
          "value": 0.0
        },
        {
          "id": 1,
          "value": 0.0
        }
      ],
      "leftModuleId": 281,
      "rightModuleId": 283,
      "data": {
        "deviations": {
          "lfos": [
            {
              "amplitude": 5.5,
              "frequency": {
                "maximum": 154.699997,
                "minimum": 0.147,
                "absMinimum": 0.000294000027,
                "absMaximum": 160.887985
              }
            },
            {
              "amplitude": 5.5,
              "frequency": {
                "maximum": 84.7399979,
                "minimum": 0.0816000029,
                "absMinimum": 0.00016320002,
                "absMaximum": 88.1295929
              }
            },
            {
              "amplitude": 5.5,
              "frequency": {
                "maximum": 42.2599983,
                "minimum": 0.0417000018,
                "absMinimum": 8.34000093e-5,
                "absMaximum": 43.9503975
              }
            },
            {
              "amplitude": 5.5,
              "frequency": {
                "maximum": 22.0100002,
                "minimum": 0.0221999995,
                "absMinimum": 4.43999998e-5,
                "absMaximum": 22.8903999
              }
            },
            {
              "amplitude": 5.5,
              "frequency": {
                "maximum": 10.3699999,
                "minimum": 0.0102000004,
                "absMinimum": 2.04000025e-5,
                "absMaximum": 10.7847996
              }
            },
            {
              "amplitude": 5.5,
              "frequency": {
                "maximum": 4.69999981,
                "minimum": 0.00505999988,
                "absMinimum": 1.01200003e-5,
                "absMaximum": 4.88799953
              }
            },
            {
              "amplitude": 5.5,
              "frequency": {
                "maximum": 2.11999989,
                "minimum": 0.00212999992,
                "absMinimum": 4.25999997e-6,
                "absMaximum": 2.20479989
              }
            },
            {
              "amplitude": 5.5,
              "frequency": {
                "maximum": 1.00999999,
                "minimum": 0.00100000005,
                "absMinimum": 2.00000022e-6,
                "absMaximum": 1.0503999
              }
            }
          ]
        }
      },
      "pos": [
        38,
        1
      ]
    },
    {
      "id": 317,
      "plugin": "LifeFormModular",
      "version": "1.1",
      "model": "PercussiveVibration",
      "params": [
        {
          "id": 0,
          "value": 9.0
        },
        {
          "id": 1,
          "value": 0.0
        },
        {
          "id": 2,
          "value": 0.0
        },
        {
          "id": 3,
          "value": 1.0
        },
        {
          "id": 4,
          "value": 0.0
        },
        {
          "id": 5,
          "value": 0.0
        },
        {
          "id": 6,
          "value": 0.587000072
        },
        {
          "id": 7,
          "value": 0.0
        },
        {
          "id": 8,
          "value": 0.0
        },
        {
          "id": 9,
          "value": 0.0
        },
        {
          "id": 10,
          "value": 0.0
        },
        {
          "id": 11,
          "value": 0.0
        },
        {
          "id": 12,
          "value": 0.0945000201
        },
        {
          "id": 13,
          "value": 0.345000058
        },
        {
          "id": 14,
          "value": 0.0
        },
        {
          "id": 15,
          "value": 0.0
        },
        {
          "id": 16,
          "value": 0.0
        },
        {
          "id": 17,
          "value": 0.0
        },
        {
          "id": 18,
          "value": 0.0
        },
        {
          "id": 19,
          "value": 0.0
        },
        {
          "id": 20,
          "value": 0.899999976
        },
        {
          "id": 21,
          "value": 0.0
        },
        {
          "id": 22,
          "value": 0.0
        },
        {
          "id": 23,
          "value": 0.0
        },
        {
          "id": 24,
          "value": 0.0
        },
        {
          "id": 25,
          "value": 0.0
        }
      ],
      "leftModuleId": 318,
      "rightModuleId": 319,
      "pos": [
        4,
        2
      ]
    },
    {
      "id": 318,
      "plugin": "CountModula",
      "version": "1.13.0",
      "model": "Chances",
      "params": [
        {
          "id": 0,
          "value": 0.809499741
        },
        {
          "id": 1,
          "value": 1.0
        }
      ],
      "rightModuleId": 317,
      "data": {
        "moduleVersion": 1.10000002,
        "theme": 1
      },
      "pos": [
        0,
        2
      ]
    },
    {
      "id": 319,
      "plugin": "Fundamental",
      "version": "1.4.0",
      "model": "Delay",
      "params": [
        {
          "id": 0,
          "value": 0.57949996
        },
        {
          "id": 1,
          "value": 0.945500612
        },
        {
          "id": 2,
          "value": 0.640999854
        },
        {
          "id": 3,
          "value": 0.5
        }
      ],
      "leftModuleId": 317,
      "pos": [
        32,
        2
      ]
    },
    {
      "id": 321,
      "plugin": "Instruo",
      "version": "1.1.0",
      "model": "tsl",
      "params": [
        {
          "id": 0,
          "value": 0.0
        },
        {
          "id": 1,
          "value": 0.558091819
        },
        {
          "id": 2,
          "value": 0.0
        },
        {
          "id": 3,
          "value": 0.0
        },
        {
          "id": 4,
          "value": 0.0
        },
        {
          "id": 5,
          "value": 1.0
        },
        {
          "id": 6,
          "value": 0.0
        },
        {
          "id": 7,
          "value": 0.0
        },
        {
          "id": 8,
          "value": 0.0
        },
        {
          "id": 9,
          "value": 0.0
        }
      ],
      "leftModuleId": 322,
      "rightModuleId": 323,
      "data": {
        "deviations": {
          "frequency": {
            "minimum": 0.569999993,
            "maximum": 33530.0,
            "lfo": 158.0,
            "fine": 500.0,
            "linFM": {
              "minimum": 60.0,
              "maximum": 40.0,
              "fine": 83.0,
              "factor": 3.31999993,
              "threshold": -3.20000005
            },
            "expFM": 0.980000019,
            "vpoError": 0.00249999994
          },
          "amplitudes": [
            4.0,
            5.30000019,
            4.9000001,
            5.4000001,
            4.30000019
          ],
          "sync": {
            "voltage": 2.0,
            "phase": 0.939999998
          },
          "tanh_gain": 2.17499995,
          "pwm": {
            "minimum": 0.0500000007,
            "scale": 0.699999988
          },
          "wavefolder": {
            "symmetry": {
              "offset": 0.100000001,
              "scale": -0.300000012
            },
            "tanh": 1.29999995,
            "input": {
              "gain1": -0.0900000036,
              "bias1": 0.0199999996,
              "gain2": 60.0,
              "bias2_scale": {
                "positive": 0.5,
                "negative": 0.300000012
              }
            }
          }
        }
      },
      "pos": [
        69,
        2
      ]
    },
    {
      "id": 322,
      "plugin": "Bogaudio",
      "version": "1.1.35",
      "model": "Bogaudio-Stack",
      "params": [
        {
          "id": 0,
          "value": 0.0
        },
        {
          "id": 1,
          "value": -2.0
        },
        {
          "id": 2,
          "value": 0.0
        },
        {
          "id": 3,
          "value": 1.0
        }
      ],
      "rightModuleId": 321,
      "data": {},
      "pos": [
        66,
        2
      ]
    },
    {
      "id": 323,
      "plugin": "LindenbergResearch",
      "version": "1.3.3",
      "model": "QuickMixer",
      "params": [
        {
          "id": 0,
          "value": 1.0
        },
        {
          "id": 1,
          "value": 0.496799886
        },
        {
          "id": 2,
          "value": 0.469800115
        },
        {
          "id": 3,
          "value": 0.0
        },
        {
          "id": 4,
          "value": 0.0
        },
        {
          "id": 5,
          "value": 0.0
        },
        {
          "id": 6,
          "value": 0.5
        }
      ],
      "leftModuleId": 321,
      "rightModuleId": 324,
      "gestaltID": 1,
      "gradient": true,
      "patina": false,
      "patina_i_x": true,
      "patina_i_y": false,
      "patina_a_x": 983.838867,
      "patina_a_y": 395.238708,
      "overlay": false,
      "overlay_r": 0.0604503155,
      "overlay_g": 0.239006937,
      "overlay_b": 0.113801599,
      "overlay_a": 0.353305519,
      "pos": [
        75,
        2
      ]
    },
    {
      "id": 324,
      "plugin": "VultModulesFree",
      "version": "1.14",
      "model": "Tangents",
      "params": [
        {
          "id": 0,
          "value": 0.5
        },
        {
          "id": 1,
          "value": 0.373500109
        },
        {
          "id": 2,
          "value": 0.258000016
        },
        {
          "id": 3,
          "value": 0.0
        },
        {
          "id": 4,
          "value": 0.600000024
        },
        {
          "id": 5,
          "value": 0.0
        },
        {
          "id": 6,
          "value": 0.0
        }
      ],
      "leftModuleId": 323,
      "rightModuleId": 325,
      "pos": [
        82,
        2
      ]
    },
    {
      "id": 325,
      "plugin": "FLAG-Free",
      "version": "1.0.1",
      "model": "Electric-Ensemble",
      "params": [
        {
          "id": 0,
          "value": 0.0
        },
        {
          "id": 1,
          "value": 0.411999941
        },
        {
          "id": 2,
          "value": 1.0
        },
        {
          "id": 3,
          "value": 0.0
        },
        {
          "id": 4,
          "value": 1.0
        },
        {
          "id": 5,
          "value": 1.0
        },
        {
          "id": 6,
          "value": 0.365499735
        }
      ],
      "leftModuleId": 324,
      "pos": [
        92,
        2
      ]
    }
  ],
  "cables": [
    {
      "id": 204,
      "outputModuleId": 115,
      "outputId": 0,
      "inputModuleId": 28,
      "inputId": 0,
      "color": "#c91847"
    },
    {
      "id": 205,
      "outputModuleId": 115,
      "outputId": 4,
      "inputModuleId": 28,
      "inputId": 1,
      "color": "#c91847"
    },
    {
      "id": 206,
      "outputModuleId": 28,
      "outputId": 0,
      "inputModuleId": 115,
      "inputId": 0,
      "color": "#c91847"
    },
    {
      "id": 207,
      "outputModuleId": 28,
      "outputId": 1,
      "inputModuleId": 115,
      "inputId": 1,
      "color": "#c91847"
    },
    {
      "id": 219,
      "outputModuleId": 114,
      "outputId": 2,
      "inputModuleId": 126,
      "inputId": 0,
      "color": "#c91847"
    },
    {
      "id": 220,
      "outputModuleId": 114,
      "outputId": 3,
      "inputModuleId": 126,
      "inputId": 1,
      "color": "#c91847"
    },
    {
      "id": 319,
      "outputModuleId": 126,
      "outputId": 0,
      "inputModuleId": 25,
      "inputId": 0,
      "color": "#c91847"
    },
    {
      "id": 320,
      "outputModuleId": 126,
      "outputId": 1,
      "inputModuleId": 25,
      "inputId": 1,
      "color": "#c91847"
    },
    {
      "id": 650,
      "outputModuleId": 282,
      "outputId": 0,
      "inputModuleId": 281,
      "inputId": 0,
      "color": "#c9b70e"
    },
    {
      "id": 651,
      "outputModuleId": 281,
      "outputId": 0,
      "inputModuleId": 283,
      "inputId": 0,
      "color": "#c9b70e"
    },
    {
      "id": 656,
      "outputModuleId": 282,
      "outputId": 1,
      "inputModuleId": 281,
      "inputId": 2,
      "color": "#0c8e15"
    },
    {
      "id": 671,
      "outputModuleId": 281,
      "outputId": 1,
      "inputModuleId": 293,
      "inputId": 0,
      "color": "#c9b70e"
    },
    {
      "id": 693,
      "outputModuleId": 281,
      "outputId": 2,
      "inputModuleId": 302,
      "inputId": 0,
      "color": "#c9b70e"
    },
    {
      "id": 694,
      "outputModuleId": 281,
      "outputId": 3,
      "inputModuleId": 303,
      "inputId": 0,
      "color": "#c9b70e"
    },
    {
      "id": 695,
      "outputModuleId": 283,
      "outputId": 0,
      "inputModuleId": 304,
      "inputId": 1,
      "color": "#c91847"
    },
    {
      "id": 696,
      "outputModuleId": 293,
      "outputId": 0,
      "inputModuleId": 304,
      "inputId": 2,
      "color": "#c91847"
    },
    {
      "id": 697,
      "outputModuleId": 302,
      "outputId": 0,
      "inputModuleId": 304,
      "inputId": 3,
      "color": "#c91847"
    },
    {
      "id": 698,
      "outputModuleId": 303,
      "outputId": 0,
      "inputModuleId": 304,
      "inputId": 4,
      "color": "#c91847"
    },
    {
      "id": 699,
      "outputModuleId": 313,
      "outputId": 0,
      "inputModuleId": 114,
      "inputId": 0,
      "color": "#c91847"
    },
    {
      "id": 712,
      "outputModuleId": 313,
      "outputId": 1,
      "inputModuleId": 114,
      "inputId": 1,
      "color": "#c91847"
    },
    {
      "id": 649,
      "outputModuleId": 24,
      "outputId": 1,
      "inputModuleId": 282,
      "inputId": 0,
      "color": "#0986ad"
    },
    {
      "id": 713,
      "outputModuleId": 24,
      "outputId": 4,
      "inputModuleId": 282,
      "inputId": 4,
      "color": "#0986ad"
    },
    {
      "id": 714,
      "outputModuleId": 304,
      "outputId": 0,
      "inputModuleId": 313,
      "inputId": 5,
      "color": "#c91847"
    },
    {
      "id": 700,
      "outputModuleId": 281,
      "outputId": 4,
      "inputModuleId": 314,
      "inputId": 0,
      "color": "#0986ad"
    },
    {
      "id": 704,
      "outputModuleId": 314,
      "outputId": 0,
      "inputModuleId": 305,
      "inputId": 3,
      "color": "#0986ad"
    },
    {
      "id": 705,
      "outputModuleId": 314,
      "outputId": 1,
      "inputModuleId": 306,
      "inputId": 3,
      "color": "#0986ad"
    },
    {
      "id": 702,
      "outputModuleId": 281,
      "outputId": 4,
      "inputModuleId": 315,
      "inputId": 0,
      "color": "#0986ad"
    },
    {
      "id": 706,
      "outputModuleId": 315,
      "outputId": 0,
      "inputModuleId": 307,
      "inputId": 3,
      "color": "#0986ad"
    },
    {
      "id": 707,
      "outputModuleId": 315,
      "outputId": 1,
      "inputModuleId": 308,
      "inputId": 3,
      "color": "#0986ad"
    },
    {
      "id": 719,
      "outputModuleId": 316,
      "outputId": 0,
      "inputModuleId": 283,
      "inputId": 1,
      "color": "#0c8e15"
    },
    {
      "id": 720,
      "outputModuleId": 316,
      "outputId": 1,
      "inputModuleId": 293,
      "inputId": 1,
      "color": "#0c8e15"
    },
    {
      "id": 721,
      "outputModuleId": 316,
      "outputId": 2,
      "inputModuleId": 302,
      "inputId": 1,
      "color": "#0c8e15"
    },
    {
      "id": 722,
      "outputModuleId": 316,
      "outputId": 3,
      "inputModuleId": 303,
      "inputId": 1,
      "color": "#0c8e15"
    },
    {
      "id": 723,
      "outputModuleId": 316,
      "outputId": 4,
      "inputModuleId": 283,
      "inputId": 2,
      "color": "#0c8e15"
    },
    {
      "id": 724,
      "outputModuleId": 316,
      "outputId": 5,
      "inputModuleId": 293,
      "inputId": 2,
      "color": "#0c8e15"
    },
    {
      "id": 725,
      "outputModuleId": 316,
      "outputId": 6,
      "inputModuleId": 302,
      "inputId": 2,
      "color": "#0c8e15"
    },
    {
      "id": 726,
      "outputModuleId": 316,
      "outputId": 7,
      "inputModuleId": 303,
      "inputId": 2,
      "color": "#0c8e15"
    },
    {
      "id": 727,
      "outputModuleId": 281,
      "outputId": 2,
      "inputModuleId": 317,
      "inputId": 1,
      "color": "#c9b70e"
    },
    {
      "id": 728,
      "outputModuleId": 281,
      "outputId": 4,
      "inputModuleId": 318,
      "inputId": 0,
      "color": "#0986ad"
    },
    {
      "id": 729,
      "outputModuleId": 318,
      "outputId": 0,
      "inputModuleId": 317,
      "inputId": 7,
      "color": "#0986ad"
    },
    {
      "id": 730,
      "outputModuleId": 317,
      "outputId": 1,
      "inputModuleId": 319,
      "inputId": 4,
      "color": "#c91847"
    },
    {
      "id": 731,
      "outputModuleId": 319,
      "outputId": 0,
      "inputModuleId": 114,
      "inputId": 2,
      "color": "#c91847"
    },
    {
      "id": 732,
      "outputModuleId": 316,
      "outputId": 3,
      "inputModuleId": 317,
      "inputId": 3,
      "color": "#0c8e15"
    },
    {
      "id": 733,
      "outputModuleId": 316,
      "outputId": 0,
      "inputModuleId": 114,
      "inputId": 27,
      "color": "#0c8e15"
    },
    {
      "id": 734,
      "outputModuleId": 281,
      "outputId": 0,
      "inputModuleId": 322,
      "inputId": 1,
      "color": "#c9b70e"
    },
    {
      "id": 735,
      "outputModuleId": 322,
      "outputId": 1,
      "inputModuleId": 321,
      "inputId": 0,
      "color": "#c9b70e"
    },
    {
      "id": 736,
      "outputModuleId": 321,
      "outputId": 2,
      "inputModuleId": 323,
      "inputId": 0,
      "color": "#c91847"
    },
    {
      "id": 738,
      "outputModuleId": 321,
      "outputId": 3,
      "inputModuleId": 323,
      "inputId": 1,
      "color": "#c91847"
    },
    {
      "id": 739,
      "outputModuleId": 321,
      "outputId": 0,
      "inputModuleId": 323,
      "inputId": 2,
      "color": "#c91847"
    },
    {
      "id": 740,
      "outputModuleId": 323,
      "outputId": 0,
      "inputModuleId": 324,
      "inputId": 0,
      "color": "#c91847"
    },
    {
      "id": 737,
      "outputModuleId": 325,
      "outputId": 0,
      "inputModuleId": 114,
      "inputId": 4,
      "color": "#c91847"
    },
    {
      "id": 741,
      "outputModuleId": 325,
      "outputId": 1,
      "inputModuleId": 114,
      "inputId": 5,
      "color": "#c91847"
    },
    {
      "id": 742,
      "outputModuleId": 324,
      "outputId": 0,
      "inputModuleId": 325,
      "inputId": 6,
      "color": "#c91847"
    },
    {
      "id": 743,
      "outputModuleId": 316,
      "outputId": 1,
      "inputModuleId": 324,
      "inputId": 3,
      "color": "#0c8e15"
    },
    {
      "id": 748,
      "outputModuleId": 305,
      "outputId": 0,
      "inputModuleId": 304,
      "inputId": 5,
      "color": "#0c8e15"
    },
    {
      "id": 749,
      "outputModuleId": 306,
      "outputId": 0,
      "inputModuleId": 304,
      "inputId": 6,
      "color": "#c91847"
    },
    {
      "id": 750,
      "outputModuleId": 307,
      "outputId": 0,
      "inputModuleId": 304,
      "inputId": 7,
      "color": "#0986ad"
    },
    {
      "id": 751,
      "outputModuleId": 308,
      "outputId": 0,
      "inputModuleId": 304,
      "inputId": 8,
      "color": "#c9b70e"
    }
  ]
}