{
  "version": "1.1.6",
  "modules": [
    {
      "id": 24,
      "plugin": "ImpromptuModular",
      "version": "1.1.9",
      "model": "Clocked",
      "params": [
        {
          "id": 0,
          "value": 125.0
        },
        {
          "id": 1,
          "value": 2.0
        },
        {
          "id": 2,
          "value": 5.0
        },
        {
          "id": 3,
          "value": -9.0
        },
        {
          "id": 4,
          "value": 0.0
        },
        {
          "id": 5,
          "value": 0.0
        },
        {
          "id": 6,
          "value": 0.0
        },
        {
          "id": 7,
          "value": 0.0
        },
        {
          "id": 8,
          "value": 0.5
        },
        {
          "id": 9,
          "value": 0.5
        },
        {
          "id": 10,
          "value": 0.5
        },
        {
          "id": 11,
          "value": 0.5
        },
        {
          "id": 12,
          "value": 0.0
        },
        {
          "id": 13,
          "value": 0.0
        },
        {
          "id": 14,
          "value": 0.0
        },
        {
          "id": 15,
          "value": 0.0
        },
        {
          "id": 16,
          "value": 0.0
        },
        {
          "id": 17,
          "value": 0.0
        },
        {
          "id": 18,
          "value": 0.0
        },
        {
          "id": 19,
          "value": 0.0
        }
      ],
      "rightModuleId": 114,
      "data": {
        "panelTheme": 1,
        "running": true,
        "displayDelayNoteMode": true,
        "bpmDetectionMode": false,
        "resetOnStartStop": 0,
        "ppqn": 4,
        "resetClockOutputsHigh": true,
        "momentaryRunInput": true,
        "clockMaster": false
      },
      "pos": [
        12,
        1
      ]
    },
    {
      "id": 25,
      "plugin": "Core",
      "version": "1.1.6",
      "model": "AudioInterface",
      "params": [],
      "leftModuleId": 126,
      "rightModuleId": 128,
      "data": {
        "audio": {
          "driver": 7,
          "offset": 0,
          "maxChannels": 8,
          "sampleRate": 48000,
          "blockSize": 512
        }
      },
      "pos": [
        119,
        1
      ]
    },
    {
      "id": 28,
      "plugin": "Valley",
      "version": "1.1.5",
      "model": "Plateau",
      "params": [
        {
          "id": 0,
          "value": 0.0
        },
        {
          "id": 1,
          "value": 1.0
        },
        {
          "id": 2,
          "value": 0.0
        },
        {
          "id": 3,
          "value": 8.66499901
        },
        {
          "id": 4,
          "value": 10.0
        },
        {
          "id": 5,
          "value": 0.5
        },
        {
          "id": 6,
          "value": 10.0
        },
        {
          "id": 7,
          "value": 0.475708216
        },
        {
          "id": 8,
          "value": 10.0
        },
        {
          "id": 9,
          "value": 7.43499994
        },
        {
          "id": 10,
          "value": 0.0
        },
        {
          "id": 11,
          "value": 0.5
        },
        {
          "id": 12,
          "value": 6.38000059
        },
        {
          "id": 13,
          "value": 0.0
        },
        {
          "id": 14,
          "value": 0.0
        },
        {
          "id": 15,
          "value": 0.0
        },
        {
          "id": 16,
          "value": 0.0
        },
        {
          "id": 17,
          "value": 0.0
        },
        {
          "id": 18,
          "value": 0.0
        },
        {
          "id": 19,
          "value": 0.0
        },
        {
          "id": 20,
          "value": 0.0
        },
        {
          "id": 21,
          "value": 0.0
        },
        {
          "id": 22,
          "value": 0.0
        },
        {
          "id": 23,
          "value": 0.0
        },
        {
          "id": 24,
          "value": 0.0
        },
        {
          "id": 25,
          "value": 0.0
        },
        {
          "id": 26,
          "value": 0.0
        },
        {
          "id": 27,
          "value": 0.0
        },
        {
          "id": 28,
          "value": 0.0
        },
        {
          "id": 29,
          "value": 0.0
        },
        {
          "id": 30,
          "value": 1.0
        }
      ],
      "leftModuleId": 115,
      "rightModuleId": 126,
      "data": {
        "frozen": false,
        "freezeToggle": false,
        "panelStyle": 0,
        "tuned": 0,
        "diffuseInput": 1,
        "preDelayCVSens": 0,
        "inputSensitivity": 0,
        "outputSaturation": 0
      },
      "pos": [
        98,
        1
      ]
    },
    {
      "id": 114,
      "plugin": "MindMeldModular",
      "version": "1.1.12",
      "model": "MixMasterJr",
      "params": [
        {
          "id": 0,
          "value": 1.0
        },
        {
          "id": 1,
          "value": 1.0
        },
        {
          "id": 2,
          "value": 1.0
        },
        {
          "id": 3,
          "value": 1.0
        },
        {
          "id": 4,
          "value": 1.0
        },
        {
          "id": 5,
          "value": 1.0
        },
        {
          "id": 6,
          "value": 1.0
        },
        {
          "id": 7,
          "value": 1.0
        },
        {
          "id": 8,
          "value": 1.0
        },
        {
          "id": 9,
          "value": 1.0
        },
        {
          "id": 10,
          "value": 0.5
        },
        {
          "id": 11,
          "value": 0.5
        },
        {
          "id": 12,
          "value": 0.5
        },
        {
          "id": 13,
          "value": 0.5
        },
        {
          "id": 14,
          "value": 0.5
        },
        {
          "id": 15,
          "value": 0.5
        },
        {
          "id": 16,
          "value": 0.5
        },
        {
          "id": 17,
          "value": 0.5
        },
        {
          "id": 18,
          "value": 0.5
        },
        {
          "id": 19,
          "value": 0.5
        },
        {
          "id": 20,
          "value": 0.0
        },
        {
          "id": 21,
          "value": 0.0
        },
        {
          "id": 22,
          "value": 0.0
        },
        {
          "id": 23,
          "value": 0.0
        },
        {
          "id": 24,
          "value": 0.0
        },
        {
          "id": 25,
          "value": 0.0
        },
        {
          "id": 26,
          "value": 0.0
        },
        {
          "id": 27,
          "value": 0.0
        },
        {
          "id": 28,
          "value": 0.0
        },
        {
          "id": 29,
          "value": 0.0
        },
        {
          "id": 30,
          "value": 0.0
        },
        {
          "id": 31,
          "value": 0.0
        },
        {
          "id": 32,
          "value": 0.0
        },
        {
          "id": 33,
          "value": 0.0
        },
        {
          "id": 34,
          "value": 0.0
        },
        {
          "id": 35,
          "value": 0.0
        },
        {
          "id": 36,
          "value": 0.0
        },
        {
          "id": 37,
          "value": 0.0
        },
        {
          "id": 38,
          "value": 0.0
        },
        {
          "id": 39,
          "value": 0.0
        },
        {
          "id": 40,
          "value": 1.0
        },
        {
          "id": 41,
          "value": 1.0
        },
        {
          "id": 42,
          "value": 0.0
        },
        {
          "id": 43,
          "value": 1.0
        },
        {
          "id": 44,
          "value": 0.0
        },
        {
          "id": 45,
          "value": 0.0
        },
        {
          "id": 46,
          "value": 0.0
        },
        {
          "id": 47,
          "value": 0.0
        },
        {
          "id": 48,
          "value": 0.0
        },
        {
          "id": 49,
          "value": 0.0
        },
        {
          "id": 50,
          "value": 0.0
        },
        {
          "id": 51,
          "value": 0.0
        },
        {
          "id": 52,
          "value": 13.0
        },
        {
          "id": 53,
          "value": 13.0
        },
        {
          "id": 54,
          "value": 13.0
        },
        {
          "id": 55,
          "value": 13.0
        },
        {
          "id": 56,
          "value": 13.0
        },
        {
          "id": 57,
          "value": 13.0
        },
        {
          "id": 58,
          "value": 13.0
        },
        {
          "id": 59,
          "value": 13.0
        },
        {
          "id": 60,
          "value": 20010.0
        },
        {
          "id": 61,
          "value": 20010.0
        },
        {
          "id": 62,
          "value": 20010.0
        },
        {
          "id": 63,
          "value": 20010.0
        },
        {
          "id": 64,
          "value": 20010.0
        },
        {
          "id": 65,
          "value": 20010.0
        },
        {
          "id": 66,
          "value": 20010.0
        },
        {
          "id": 67,
          "value": 20010.0
        },
        {
          "id": 68,
          "value": 13.0
        },
        {
          "id": 69,
          "value": 13.0
        },
        {
          "id": 70,
          "value": 20010.0
        },
        {
          "id": 71,
          "value": 20010.0
        }
      ],
      "leftModuleId": 24,
      "rightModuleId": 115,
      "data": {
        "trackLabels": "BLEKPLTSBASS-04--05--06--07--08-GRP1GRP2",
        "panLawMono": 1,
        "panLawStereo": 1,
        "directOutsMode": 3,
        "directOutsSkipGroupedTracks": 0,
        "auxSendsMode": 3,
        "groupsControlTrackSendLevels": 0,
        "auxReturnsMutedWhenMainSolo": 0,
        "auxReturnsSolosMuteDry": 0,
        "chainMode": 1,
        "colorAndCloak": 117440512,
        "symmetricalFade": false,
        "fadeCvOutsWithVolCv": false,
        "linkBitMask": 0,
        "filterPos": 0,
        "groupedAuxReturnFeedbackProtection": 1,
        "ecoMode": 65535,
        "faders": [
          1.0,
          1.0,
          1.0,
          1.0,
          1.0,
          1.0,
          1.0,
          1.0,
          1.0,
          1.0
        ],
        "momentaryCvButtons": 1,
        "masterFaderScalesSends": 0,
        "linearVolCvInputs": 0,
        "id_t0_gainAdjust": 0.446683317,
        "id_t0_fadeRate": 0.0,
        "id_t0_fadeProfile": 0.0,
        "id_t0_directOutsMode": 3,
        "id_t0_auxSendsMode": 3,
        "id_t0_panLawStereo": 1,
        "id_t0_vuColorThemeLocal": 0,
        "id_t0_filterPos": 1,
        "id_t0_dispColorLocal": 0,
        "id_t0_polyStereo": 0,
        "id_t0_panCvLevel": 1.0,
        "id_t0_stereoWidth": 1.0,
        "id_t0_invertInput": 0,
        "id_t1_gainAdjust": 1.0,
        "id_t1_fadeRate": 0.0,
        "id_t1_fadeProfile": 0.0,
        "id_t1_directOutsMode": 3,
        "id_t1_auxSendsMode": 3,
        "id_t1_panLawStereo": 1,
        "id_t1_vuColorThemeLocal": 0,
        "id_t1_filterPos": 1,
        "id_t1_dispColorLocal": 0,
        "id_t1_polyStereo": 0,
        "id_t1_panCvLevel": 1.0,
        "id_t1_stereoWidth": 1.0,
        "id_t1_invertInput": 0,
        "id_t2_gainAdjust": 0.630957365,
        "id_t2_fadeRate": 0.0,
        "id_t2_fadeProfile": 0.0,
        "id_t2_directOutsMode": 3,
        "id_t2_auxSendsMode": 3,
        "id_t2_panLawStereo": 1,
        "id_t2_vuColorThemeLocal": 0,
        "id_t2_filterPos": 1,
        "id_t2_dispColorLocal": 0,
        "id_t2_polyStereo": 0,
        "id_t2_panCvLevel": 1.0,
        "id_t2_stereoWidth": 1.0,
        "id_t2_invertInput": 0,
        "id_t3_gainAdjust": 1.0,
        "id_t3_fadeRate": 0.0,
        "id_t3_fadeProfile": 0.0,
        "id_t3_directOutsMode": 3,
        "id_t3_auxSendsMode": 3,
        "id_t3_panLawStereo": 1,
        "id_t3_vuColorThemeLocal": 0,
        "id_t3_filterPos": 1,
        "id_t3_dispColorLocal": 0,
        "id_t3_polyStereo": 0,
        "id_t3_panCvLevel": 1.0,
        "id_t3_stereoWidth": 1.0,
        "id_t3_invertInput": 0,
        "id_t4_gainAdjust": 1.0,
        "id_t4_fadeRate": 0.0,
        "id_t4_fadeProfile": 0.0,
        "id_t4_directOutsMode": 3,
        "id_t4_auxSendsMode": 3,
        "id_t4_panLawStereo": 1,
        "id_t4_vuColorThemeLocal": 0,
        "id_t4_filterPos": 1,
        "id_t4_dispColorLocal": 0,
        "id_t4_polyStereo": 0,
        "id_t4_panCvLevel": 1.0,
        "id_t4_stereoWidth": 1.0,
        "id_t4_invertInput": 0,
        "id_t5_gainAdjust": 1.0,
        "id_t5_fadeRate": 0.0,
        "id_t5_fadeProfile": 0.0,
        "id_t5_directOutsMode": 3,
        "id_t5_auxSendsMode": 3,
        "id_t5_panLawStereo": 1,
        "id_t5_vuColorThemeLocal": 0,
        "id_t5_filterPos": 1,
        "id_t5_dispColorLocal": 0,
        "id_t5_polyStereo": 0,
        "id_t5_panCvLevel": 1.0,
        "id_t5_stereoWidth": 1.0,
        "id_t5_invertInput": 0,
        "id_t6_gainAdjust": 1.0,
        "id_t6_fadeRate": 0.0,
        "id_t6_fadeProfile": 0.0,
        "id_t6_directOutsMode": 3,
        "id_t6_auxSendsMode": 3,
        "id_t6_panLawStereo": 1,
        "id_t6_vuColorThemeLocal": 0,
        "id_t6_filterPos": 1,
        "id_t6_dispColorLocal": 0,
        "id_t6_polyStereo": 0,
        "id_t6_panCvLevel": 1.0,
        "id_t6_stereoWidth": 1.0,
        "id_t6_invertInput": 0,
        "id_t7_gainAdjust": 1.0,
        "id_t7_fadeRate": 0.0,
        "id_t7_fadeProfile": 0.0,
        "id_t7_directOutsMode": 3,
        "id_t7_auxSendsMode": 3,
        "id_t7_panLawStereo": 1,
        "id_t7_vuColorThemeLocal": 0,
        "id_t7_filterPos": 1,
        "id_t7_dispColorLocal": 0,
        "id_t7_polyStereo": 0,
        "id_t7_panCvLevel": 1.0,
        "id_t7_stereoWidth": 1.0,
        "id_t7_invertInput": 0,
        "id_g0_fadeRate": 0.0,
        "id_g0_fadeProfile": 0.0,
        "id_g0_directOutsMode": 3,
        "id_g0_auxSendsMode": 3,
        "id_g0_panLawStereo": 1,
        "id_g0_vuColorThemeLocal": 0,
        "id_g0_filterPos": 1,
        "id_g0_dispColorLocal": 0,
        "id_g0_panCvLevel": 1.0,
        "id_g0_stereoWidth": 1.0,
        "id_g1_fadeRate": 0.0,
        "id_g1_fadeProfile": 0.0,
        "id_g1_directOutsMode": 3,
        "id_g1_auxSendsMode": 3,
        "id_g1_panLawStereo": 1,
        "id_g1_vuColorThemeLocal": 0,
        "id_g1_filterPos": 1,
        "id_g1_dispColorLocal": 0,
        "id_g1_panCvLevel": 1.0,
        "id_g1_stereoWidth": 1.0,
        "dcBlock": false,
        "clipping": 0,
        "fadeRate": 0.0,
        "fadeProfile": 0.0,
        "vuColorThemeLocal": 0,
        "dispColorLocal": 0,
        "chainOnly": 0,
        "dimGain": 0.251190007,
        "masterLabel": "MASTER"
      },
      "pos": [
        32,
        1
      ]
    },
    {
      "id": 115,
      "plugin": "MindMeldModular",
      "version": "1.1.12",
      "model": "AuxExpanderJr",
      "params": [
        {
          "id": 0,
          "value": 0.363999993
        },
        {
          "id": 1,
          "value": 0.0
        },
        {
          "id": 2,
          "value": 0.0
        },
        {
          "id": 3,
          "value": 0.0
        },
        {
          "id": 4,
          "value": 0.379499912
        },
        {
          "id": 5,
          "value": 0.0
        },
        {
          "id": 6,
          "value": 0.0
        },
        {
          "id": 7,
          "value": 0.0
        },
        {
          "id": 8,
          "value": 0.37650001
        },
        {
          "id": 9,
          "value": 0.0
        },
        {
          "id": 10,
          "value": 0.0
        },
        {
          "id": 11,
          "value": 0.0
        },
        {
          "id": 12,
          "value": 0.0
        },
        {
          "id": 13,
          "value": 0.0
        },
        {
          "id": 14,
          "value": 0.0
        },
        {
          "id": 15,
          "value": 0.0
        },
        {
          "id": 16,
          "value": 0.0
        },
        {
          "id": 17,
          "value": 0.0
        },
        {
          "id": 18,
          "value": 0.0
        },
        {
          "id": 19,
          "value": 0.0
        },
        {
          "id": 20,
          "value": 0.0
        },
        {
          "id": 21,
          "value": 0.0
        },
        {
          "id": 22,
          "value": 0.0
        },
        {
          "id": 23,
          "value": 0.0
        },
        {
          "id": 24,
          "value": 0.0
        },
        {
          "id": 25,
          "value": 0.0
        },
        {
          "id": 26,
          "value": 0.0
        },
        {
          "id": 27,
          "value": 0.0
        },
        {
          "id": 28,
          "value": 0.0
        },
        {
          "id": 29,
          "value": 0.0
        },
        {
          "id": 30,
          "value": 0.0
        },
        {
          "id": 31,
          "value": 0.0
        },
        {
          "id": 32,
          "value": 0.0
        },
        {
          "id": 33,
          "value": 0.0
        },
        {
          "id": 34,
          "value": 0.0
        },
        {
          "id": 35,
          "value": 0.0
        },
        {
          "id": 36,
          "value": 0.0
        },
        {
          "id": 37,
          "value": 0.0
        },
        {
          "id": 38,
          "value": 0.0
        },
        {
          "id": 39,
          "value": 0.0
        },
        {
          "id": 40,
          "value": 0.0
        },
        {
          "id": 41,
          "value": 0.0
        },
        {
          "id": 42,
          "value": 0.0
        },
        {
          "id": 43,
          "value": 0.0
        },
        {
          "id": 44,
          "value": 0.0
        },
        {
          "id": 45,
          "value": 0.0
        },
        {
          "id": 46,
          "value": 0.0
        },
        {
          "id": 47,
          "value": 0.0
        },
        {
          "id": 48,
          "value": 0.0
        },
        {
          "id": 49,
          "value": 0.0
        },
        {
          "id": 50,
          "value": 0.0
        },
        {
          "id": 51,
          "value": 0.0
        },
        {
          "id": 52,
          "value": 0.0
        },
        {
          "id": 53,
          "value": 0.0
        },
        {
          "id": 54,
          "value": 0.0
        },
        {
          "id": 55,
          "value": 0.0
        },
        {
          "id": 56,
          "value": 0.0
        },
        {
          "id": 57,
          "value": 0.0
        },
        {
          "id": 58,
          "value": 0.0
        },
        {
          "id": 59,
          "value": 0.0
        },
        {
          "id": 60,
          "value": 0.0
        },
        {
          "id": 61,
          "value": 0.0
        },
        {
          "id": 62,
          "value": 1.0
        },
        {
          "id": 63,
          "value": 1.0
        },
        {
          "id": 64,
          "value": 1.0
        },
        {
          "id": 65,
          "value": 1.0
        },
        {
          "id": 66,
          "value": 0.5
        },
        {
          "id": 67,
          "value": 0.5
        },
        {
          "id": 68,
          "value": 0.5
        },
        {
          "id": 69,
          "value": 0.5
        },
        {
          "id": 70,
          "value": 1.0
        },
        {
          "id": 71,
          "value": 1.0
        },
        {
          "id": 72,
          "value": 1.0
        },
        {
          "id": 73,
          "value": 1.0
        }
      ],
      "leftModuleId": 114,
      "rightModuleId": 28,
      "data": {
        "directOutsModeLocal": 50529027,
        "panLawStereoLocal": 16843009,
        "vuColorThemeLocal": 0,
        "dispColorAuxLocal": [
          0,
          0,
          0,
          0
        ],
        "auxFadeRatesAndProfiles": [
          0.0,
          0.0,
          0.0,
          0.0,
          0.0,
          0.0,
          0.0,
          0.0
        ],
        "auxLabels": "VerbAUXBAUXCAUXD",
        "id_x0_hpfCutoffFreq": 198.556,
        "id_x0_lpfCutoffFreq": 20010.0,
        "id_x0_stereoWidth": 1.0,
        "id_x1_hpfCutoffFreq": 13.0,
        "id_x1_lpfCutoffFreq": 20010.0,
        "id_x1_stereoWidth": 1.0,
        "id_x2_hpfCutoffFreq": 13.0,
        "id_x2_lpfCutoffFreq": 20010.0,
        "id_x2_stereoWidth": 1.0,
        "id_x3_hpfCutoffFreq": 13.0,
        "id_x3_lpfCutoffFreq": 20010.0,
        "id_x3_stereoWidth": 1.0,
        "panCvLevels": [
          1.0,
          1.0,
          1.0,
          1.0
        ]
      },
      "pos": [
        68,
        1
      ]
    },
    {
      "id": 126,
      "plugin": "MindMeldModular",
      "version": "1.1.12",
      "model": "BassMaster",
      "params": [
        {
          "id": 0,
          "value": 120.0
        },
        {
          "id": 1,
          "value": 0.0
        },
        {
          "id": 2,
          "value": 0.0
        },
        {
          "id": 3,
          "value": 1.0
        },
        {
          "id": 4,
          "value": 0.0
        },
        {
          "id": 5,
          "value": 0.0
        },
        {
          "id": 6,
          "value": 0.0
        },
        {
          "id": 7,
          "value": 0.0
        },
        {
          "id": 8,
          "value": 0.0
        },
        {
          "id": 9,
          "value": 0.0
        },
        {
          "id": 10,
          "value": 1.0
        }
      ],
      "leftModuleId": 28,
      "rightModuleId": 25,
      "data": {
        "miscSettings": 0
      },
      "pos": [
        110,
        1
      ]
    },
    {
      "id": 128,
      "plugin": "Stoermelder-P1",
      "version": "1.8.0",
      "model": "Mb",
      "params": [],
      "leftModuleId": 25,
      "data": {
        "mode": 1
      },
      "pos": [
        129,
        1
      ]
    },
    {
      "id": 238,
      "plugin": "Instruo",
      "version": "1.1.0",
      "model": "harmonaig",
      "params": [
        {
          "id": 0,
          "value": 0.0
        },
        {
          "id": 1,
          "value": 0.0
        },
        {
          "id": 2,
          "value": 1.0
        },
        {
          "id": 3,
          "value": 0.0
        },
        {
          "id": 4,
          "value": 0.0
        },
        {
          "id": 5,
          "value": 1.0
        },
        {
          "id": 6,
          "value": 0.0
        },
        {
          "id": 7,
          "value": 0.0
        },
        {
          "id": 8,
          "value": 0.0
        },
        {
          "id": 9,
          "value": 1.0
        },
        {
          "id": 10,
          "value": 1.0
        },
        {
          "id": 11,
          "value": 0.0
        },
        {
          "id": 12,
          "value": 0.0
        },
        {
          "id": 13,
          "value": 0.0
        },
        {
          "id": 14,
          "value": 0.0
        },
        {
          "id": 15,
          "value": 0.227700084
        },
        {
          "id": 16,
          "value": 0.0
        },
        {
          "id": 17,
          "value": 0.0
        },
        {
          "id": 18,
          "value": 0.184500083
        },
        {
          "id": 19,
          "value": 0.0
        },
        {
          "id": 20,
          "value": 0.0
        },
        {
          "id": 21,
          "value": 0.0
        },
        {
          "id": 22,
          "value": 0.0
        },
        {
          "id": 23,
          "value": 0.0
        },
        {
          "id": 24,
          "value": 0.0
        },
        {
          "id": 25,
          "value": 0.0
        },
        {
          "id": 26,
          "value": 1.0
        },
        {
          "id": 27,
          "value": 0.0
        },
        {
          "id": 28,
          "value": 0.0
        },
        {
          "id": 29,
          "value": 1.0
        },
        {
          "id": 30,
          "value": 0.0
        },
        {
          "id": 31,
          "value": 0.0
        },
        {
          "id": 32,
          "value": 0.0
        },
        {
          "id": 33,
          "value": 1.0
        },
        {
          "id": 34,
          "value": 1.0
        },
        {
          "id": 35,
          "value": 0.0
        },
        {
          "id": 36,
          "value": 1.0
        },
        {
          "id": 37,
          "value": 0.0
        },
        {
          "id": 38,
          "value": 5.0
        },
        {
          "id": 39,
          "value": 0.0
        },
        {
          "id": 40,
          "value": 0.0
        },
        {
          "id": 41,
          "value": 0.0
        },
        {
          "id": 42,
          "value": 1.0
        },
        {
          "id": 43,
          "value": 1.0
        },
        {
          "id": 44,
          "value": 1.0
        },
        {
          "id": 45,
          "value": 1.0
        }
      ],
      "leftModuleId": 253,
      "rightModuleId": 241,
      "data": {
        "mode": 0
      },
      "pos": [
        18,
        2
      ]
    },
    {
      "id": 241,
      "plugin": "VultModulesFree",
      "version": "1.14",
      "model": "Bleak",
      "params": [
        {
          "id": 0,
          "value": -0.00187500007
        },
        {
          "id": 1,
          "value": -0.366000026
        },
        {
          "id": 2,
          "value": 0.471499979
        },
        {
          "id": 3,
          "value": 0.26699999
        },
        {
          "id": 4,
          "value": 0.458000004
        },
        {
          "id": 5,
          "value": -0.516000032
        }
      ],
      "leftModuleId": 238,
      "rightModuleId": 243,
      "pos": [
        36,
        2
      ]
    },
    {
      "id": 243,
      "plugin": "VultModulesFree",
      "version": "1.14",
      "model": "Bleak",
      "params": [
        {
          "id": 0,
          "value": 0.000937500037
        },
        {
          "id": 1,
          "value": -0.258000046
        },
        {
          "id": 2,
          "value": 0.544999957
        },
        {
          "id": 3,
          "value": -0.549000025
        },
        {
          "id": 4,
          "value": 0.528499961
        },
        {
          "id": 5,
          "value": 0.419999987
        }
      ],
      "leftModuleId": 241,
      "rightModuleId": 248,
      "pos": [
        42,
        2
      ]
    },
    {
      "id": 247,
      "plugin": "Valley",
      "version": "1.1.5",
      "model": "Feline",
      "params": [
        {
          "id": 0,
          "value": 6.24999857
        },
        {
          "id": 1,
          "value": 2.31000042
        },
        {
          "id": 2,
          "value": 0.0
        },
        {
          "id": 3,
          "value": 0.0
        },
        {
          "id": 4,
          "value": 0.322000027
        },
        {
          "id": 5,
          "value": 0.489000022
        },
        {
          "id": 6,
          "value": 0.495000064
        },
        {
          "id": 7,
          "value": 0.291000038
        },
        {
          "id": 8,
          "value": 0.0
        },
        {
          "id": 9,
          "value": 0.0
        },
        {
          "id": 10,
          "value": 0.0
        },
        {
          "id": 11,
          "value": 0.0
        },
        {
          "id": 12,
          "value": 0.0
        },
        {
          "id": 13,
          "value": 0.0
        },
        {
          "id": 14,
          "value": 0.0
        },
        {
          "id": 15,
          "value": 0.0
        },
        {
          "id": 16,
          "value": 0.0
        }
      ],
      "leftModuleId": 248,
      "rightModuleId": 250,
      "data": {
        "panelStyle": 0
      },
      "pos": [
        52,
        2
      ]
    },
    {
      "id": 248,
      "plugin": "Instruo",
      "version": "1.1.0",
      "model": "ochd",
      "params": [
        {
          "id": 0,
          "value": 0.0
        },
        {
          "id": 1,
          "value": 0.0
        }
      ],
      "leftModuleId": 243,
      "rightModuleId": 247,
      "data": {
        "deviations": {
          "lfos": [
            {
              "amplitude": 5.5,
              "frequency": {
                "maximum": 154.699997,
                "minimum": 0.147,
                "absMinimum": 0.000294000027,
                "absMaximum": 160.887985
              }
            },
            {
              "amplitude": 5.5,
              "frequency": {
                "maximum": 84.7399979,
                "minimum": 0.0816000029,
                "absMinimum": 0.00016320002,
                "absMaximum": 88.1295929
              }
            },
            {
              "amplitude": 5.5,
              "frequency": {
                "maximum": 42.2599983,
                "minimum": 0.0417000018,
                "absMinimum": 8.34000093e-5,
                "absMaximum": 43.9503975
              }
            },
            {
              "amplitude": 5.5,
              "frequency": {
                "maximum": 22.0100002,
                "minimum": 0.0221999995,
                "absMinimum": 4.43999998e-5,
                "absMaximum": 22.8903999
              }
            },
            {
              "amplitude": 5.5,
              "frequency": {
                "maximum": 10.3699999,
                "minimum": 0.0102000004,
                "absMinimum": 2.04000025e-5,
                "absMaximum": 10.7847996
              }
            },
            {
              "amplitude": 5.5,
              "frequency": {
                "maximum": 4.69999981,
                "minimum": 0.00505999988,
                "absMinimum": 1.01200003e-5,
                "absMaximum": 4.88799953
              }
            },
            {
              "amplitude": 5.5,
              "frequency": {
                "maximum": 2.11999989,
                "minimum": 0.00212999992,
                "absMinimum": 4.25999997e-6,
                "absMaximum": 2.20479989
              }
            },
            {
              "amplitude": 5.5,
              "frequency": {
                "maximum": 1.00999999,
                "minimum": 0.00100000005,
                "absMinimum": 2.00000022e-6,
                "absMaximum": 1.0503999
              }
            }
          ]
        }
      },
      "pos": [
        48,
        2
      ]
    },
    {
      "id": 250,
      "plugin": "VultModulesFree",
      "version": "1.14",
      "model": "Punch",
      "params": [
        {
          "id": 0,
          "value": 0.5
        },
        {
          "id": 1,
          "value": 0.5
        },
        {
          "id": 2,
          "value": 0.0
        }
      ],
      "leftModuleId": 247,
      "rightModuleId": 251,
      "pos": [
        60,
        2
      ]
    },
    {
      "id": 251,
      "plugin": "NYSTHI",
      "version": "1.0.17",
      "model": "AttackDecay",
      "params": [
        {
          "id": 0,
          "value": 0.0299999956
        },
        {
          "id": 1,
          "value": 0.0
        },
        {
          "id": 2,
          "value": 0.0
        },
        {
          "id": 3,
          "value": 1.0
        },
        {
          "id": 4,
          "value": 0.5
        },
        {
          "id": 5,
          "value": 0.0
        }
      ],
      "leftModuleId": 250,
      "rightModuleId": 252,
      "data": {
        "m_looped": false
      },
      "pos": [
        64,
        2
      ]
    },
    {
      "id": 252,
      "plugin": "AlrightDevices",
      "version": "1.0.3",
      "model": "Chronoblob2",
      "params": [
        {
          "id": 0,
          "value": 0.415999919
        },
        {
          "id": 1,
          "value": 0.438499898
        },
        {
          "id": 2,
          "value": 0.33799994
        },
        {
          "id": 3,
          "value": 0.0
        },
        {
          "id": 4,
          "value": 0.0
        },
        {
          "id": 5,
          "value": 0.0
        },
        {
          "id": 6,
          "value": 0.0
        },
        {
          "id": 7,
          "value": 0.0
        },
        {
          "id": 8,
          "value": 1.0
        },
        {
          "id": 9,
          "value": 0.0
        }
      ],
      "leftModuleId": 251,
      "data": {
        "delay_mode": 0,
        "hold_behavior": 0,
        "sync_prescaler": 6
      },
      "pos": [
        66,
        2
      ]
    },
    {
      "id": 253,
      "plugin": "Bogaudio",
      "version": "1.1.35",
      "model": "Bogaudio-AddrSeq",
      "params": [
        {
          "id": 0,
          "value": 7.21818638
        },
        {
          "id": 1,
          "value": 1.0
        },
        {
          "id": 2,
          "value": 0.0
        },
        {
          "id": 3,
          "value": -0.805946708
        },
        {
          "id": 4,
          "value": 0.819085598
        },
        {
          "id": 5,
          "value": 0.828127384
        },
        {
          "id": 6,
          "value": -0.667221069
        },
        {
          "id": 7,
          "value": 0.415707231
        },
        {
          "id": 8,
          "value": 0.0824662447
        },
        {
          "id": 9,
          "value": 0.351304889
        },
        {
          "id": 10,
          "value": 0.983245134
        }
      ],
      "leftModuleId": 283,
      "rightModuleId": 238,
      "data": {
        "poly_input": 0,
        "select_on_clock": false,
        "triggered_select": false,
        "reverse_on_negative_clock": false,
        "range_offset": 1.0,
        "range_scale": 5.0
      },
      "pos": [
        12,
        2
      ]
    },
    {
      "id": 257,
      "plugin": "Instruo",
      "version": "1.1.0",
      "model": "harmonaig",
      "params": [
        {
          "id": 0,
          "value": 0.0
        },
        {
          "id": 1,
          "value": 0.0
        },
        {
          "id": 2,
          "value": 1.0
        },
        {
          "id": 3,
          "value": 0.0
        },
        {
          "id": 4,
          "value": 0.0
        },
        {
          "id": 5,
          "value": 1.0
        },
        {
          "id": 6,
          "value": 0.0
        },
        {
          "id": 7,
          "value": 0.0
        },
        {
          "id": 8,
          "value": 0.0
        },
        {
          "id": 9,
          "value": 0.0
        },
        {
          "id": 10,
          "value": 1.0
        },
        {
          "id": 11,
          "value": 0.0
        },
        {
          "id": 12,
          "value": 0.0
        },
        {
          "id": 13,
          "value": 0.0
        },
        {
          "id": 14,
          "value": 0.0
        },
        {
          "id": 15,
          "value": 1.10000002
        },
        {
          "id": 16,
          "value": 0.0
        },
        {
          "id": 17,
          "value": 0.0
        },
        {
          "id": 18,
          "value": 0.0
        },
        {
          "id": 19,
          "value": 0.0
        },
        {
          "id": 20,
          "value": 0.0
        },
        {
          "id": 21,
          "value": 0.0
        },
        {
          "id": 22,
          "value": 0.0
        },
        {
          "id": 23,
          "value": 0.0
        },
        {
          "id": 24,
          "value": 0.0
        },
        {
          "id": 25,
          "value": 0.0
        },
        {
          "id": 26,
          "value": 1.0
        },
        {
          "id": 27,
          "value": 0.0
        },
        {
          "id": 28,
          "value": 0.0
        },
        {
          "id": 29,
          "value": 1.0
        },
        {
          "id": 30,
          "value": 0.0
        },
        {
          "id": 31,
          "value": 0.0
        },
        {
          "id": 32,
          "value": 0.0
        },
        {
          "id": 33,
          "value": 0.0
        },
        {
          "id": 34,
          "value": 1.0
        },
        {
          "id": 35,
          "value": 0.0
        },
        {
          "id": 36,
          "value": 1.0
        },
        {
          "id": 37,
          "value": 0.0
        },
        {
          "id": 38,
          "value": 2.0
        },
        {
          "id": 39,
          "value": 0.0
        },
        {
          "id": 40,
          "value": 0.0
        },
        {
          "id": 41,
          "value": 0.0
        },
        {
          "id": 42,
          "value": 1.0
        },
        {
          "id": 43,
          "value": 1.0
        },
        {
          "id": 44,
          "value": 1.0
        },
        {
          "id": 45,
          "value": 1.0
        }
      ],
      "leftModuleId": 266,
      "rightModuleId": 268,
      "data": {
        "mode": 0
      },
      "pos": [
        68,
        3
      ]
    },
    {
      "id": 258,
      "plugin": "Bogaudio",
      "version": "1.1.35",
      "model": "Bogaudio-AddrSeq",
      "params": [
        {
          "id": 0,
          "value": 5.68915749
        },
        {
          "id": 1,
          "value": 1.0
        },
        {
          "id": 2,
          "value": 0.0
        },
        {
          "id": 3,
          "value": -0.286925912
        },
        {
          "id": 4,
          "value": 0.733586192
        },
        {
          "id": 5,
          "value": -0.240637302
        },
        {
          "id": 6,
          "value": 0.845092416
        },
        {
          "id": 7,
          "value": 0.0903576612
        },
        {
          "id": 8,
          "value": -0.975595713
        },
        {
          "id": 9,
          "value": -0.653822184
        },
        {
          "id": 10,
          "value": -0.637971044
        }
      ],
      "rightModuleId": 264,
      "data": {
        "poly_input": 0,
        "select_on_clock": false,
        "triggered_select": false,
        "reverse_on_negative_clock": false,
        "range_offset": 1.0,
        "range_scale": 0.5
      },
      "pos": [
        48,
        3
      ]
    },
    {
      "id": 261,
      "plugin": "AudibleInstruments",
      "version": "1.5.0",
      "model": "Plaits",
      "params": [
        {
          "id": 0,
          "value": 0.0
        },
        {
          "id": 1,
          "value": 0.0
        },
        {
          "id": 2,
          "value": 0.0
        },
        {
          "id": 3,
          "value": 0.5
        },
        {
          "id": 4,
          "value": 0.0
        },
        {
          "id": 5,
          "value": 0.0
        },
        {
          "id": 6,
          "value": 0.5400002
        },
        {
          "id": 7,
          "value": 0.0
        },
        {
          "id": 8,
          "value": 0.0
        },
        {
          "id": 9,
          "value": 0.5
        },
        {
          "id": 10,
          "value": 0.356000096
        }
      ],
      "leftModuleId": 268,
      "rightModuleId": 262,
      "data": {
        "lowCpu": false,
        "model": 2
      },
      "pos": [
        89,
        3
      ]
    },
    {
      "id": 262,
      "plugin": "AudibleInstruments",
      "version": "1.5.0",
      "model": "Plaits",
      "params": [
        {
          "id": 0,
          "value": 0.0
        },
        {
          "id": 1,
          "value": 0.0
        },
        {
          "id": 2,
          "value": 0.0
        },
        {
          "id": 3,
          "value": 0.5
        },
        {
          "id": 4,
          "value": 0.0
        },
        {
          "id": 5,
          "value": 0.5
        },
        {
          "id": 6,
          "value": 0.479999959
        },
        {
          "id": 7,
          "value": 0.0
        },
        {
          "id": 8,
          "value": 0.0
        },
        {
          "id": 9,
          "value": 0.5
        },
        {
          "id": 10,
          "value": 0.378499955
        }
      ],
      "leftModuleId": 261,
      "rightModuleId": 267,
      "data": {
        "lowCpu": false,
        "model": 2
      },
      "pos": [
        101,
        3
      ]
    },
    {
      "id": 264,
      "plugin": "Bogaudio",
      "version": "1.1.35",
      "model": "Bogaudio-Offset",
      "params": [
        {
          "id": 0,
          "value": 0.303000122
        },
        {
          "id": 1,
          "value": 0.316229999
        }
      ],
      "leftModuleId": 258,
      "rightModuleId": 266,
      "data": {
        "disableOutputLimit": false
      },
      "pos": [
        54,
        3
      ]
    },
    {
      "id": 266,
      "plugin": "CountModula",
      "version": "1.13.0",
      "model": "Switch8To1",
      "params": [
        {
          "id": 0,
          "value": 8.0
        },
        {
          "id": 1,
          "value": 3.0
        },
        {
          "id": 2,
          "value": 0.0
        },
        {
          "id": 3,
          "value": 0.0
        },
        {
          "id": 4,
          "value": 1.0
        }
      ],
      "leftModuleId": 264,
      "rightModuleId": 257,
      "data": {
        "moduleVersion": 1,
        "currentStep": 8,
        "direction": 3,
        "clockState": false,
        "runState": true,
        "theme": 1
      },
      "pos": [
        57,
        3
      ]
    },
    {
      "id": 267,
      "plugin": "AlrightDevices",
      "version": "1.0.3",
      "model": "Chronoblob2",
      "params": [
        {
          "id": 0,
          "value": 0.5
        },
        {
          "id": 1,
          "value": 0.348499864
        },
        {
          "id": 2,
          "value": 0.274499923
        },
        {
          "id": 3,
          "value": 0.0
        },
        {
          "id": 4,
          "value": 0.0
        },
        {
          "id": 5,
          "value": 0.0
        },
        {
          "id": 6,
          "value": 0.0
        },
        {
          "id": 7,
          "value": 0.0
        },
        {
          "id": 8,
          "value": 1.0
        },
        {
          "id": 9,
          "value": 0.0
        }
      ],
      "leftModuleId": 262,
      "data": {
        "delay_mode": 1,
        "hold_behavior": 0,
        "sync_prescaler": 6
      },
      "pos": [
        113,
        3
      ]
    },
    {
      "id": 268,
      "plugin": "Bogaudio",
      "version": "1.1.35",
      "model": "Bogaudio-SampleHold",
      "params": [
        {
          "id": 0,
          "value": 0.0
        },
        {
          "id": 1,
          "value": 0.0
        },
        {
          "id": 2,
          "value": 0.0
        },
        {
          "id": 3,
          "value": 0.0
        },
        {
          "id": 4,
          "value": 0.0
        },
        {
          "id": 5,
          "value": 0.0
        }
      ],
      "leftModuleId": 257,
      "rightModuleId": 261,
      "data": {
        "poly_input": 0,
        "noise_type": 0,
        "range_offset": 1.0,
        "range_scale": 5.0
      },
      "pos": [
        86,
        3
      ]
    },
    {
      "id": 269,
      "plugin": "Bogaudio",
      "version": "1.1.35",
      "model": "Bogaudio-Reftone",
      "params": [
        {
          "id": 0,
          "value": 2.0
        },
        {
          "id": 1,
          "value": 4.0
        },
        {
          "id": 2,
          "value": 0.0
        }
      ],
      "leftModuleId": 274,
      "rightModuleId": 276,
      "data": {},
      "pos": [
        21,
        0
      ]
    },
    {
      "id": 272,
      "plugin": "squinkylabs-plug1",
      "version": "1.0.15",
      "model": "squinkylabs-super",
      "params": [
        {
          "id": 0,
          "value": -3.0
        },
        {
          "id": 1,
          "value": 0.0
        },
        {
          "id": 2,
          "value": 0.0
        },
        {
          "id": 3,
          "value": 0.0
        },
        {
          "id": 4,
          "value": 0.0
        },
        {
          "id": 5,
          "value": 5.0
        },
        {
          "id": 6,
          "value": 0.0
        },
        {
          "id": 7,
          "value": 0.0
        },
        {
          "id": 8,
          "value": 0.0
        },
        {
          "id": 9,
          "value": 0.0
        }
      ],
      "leftModuleId": 276,
      "rightModuleId": 278,
      "pos": [
        32,
        0
      ]
    },
    {
      "id": 274,
      "plugin": "Bogaudio",
      "version": "1.1.35",
      "model": "Bogaudio-Reftone",
      "params": [
        {
          "id": 0,
          "value": 10.0
        },
        {
          "id": 1,
          "value": 4.0
        },
        {
          "id": 2,
          "value": 0.0
        }
      ],
      "leftModuleId": 275,
      "rightModuleId": 269,
      "data": {},
      "pos": [
        18,
        0
      ]
    },
    {
      "id": 275,
      "plugin": "Bogaudio",
      "version": "1.1.35",
      "model": "Bogaudio-Reftone",
      "params": [
        {
          "id": 0,
          "value": 7.0
        },
        {
          "id": 1,
          "value": 4.0
        },
        {
          "id": 2,
          "value": 0.0
        }
      ],
      "leftModuleId": 277,
      "rightModuleId": 274,
      "data": {},
      "pos": [
        15,
        0
      ]
    },
    {
      "id": 276,
      "plugin": "ML_modules",
      "version": "1.1.3",
      "model": "SeqSwitch",
      "params": [
        {
          "id": 0,
          "value": 6.0
        },
        {
          "id": 1,
          "value": 0.0
        },
        {
          "id": 2,
          "value": 0.0
        },
        {
          "id": 3,
          "value": 0.0
        },
        {
          "id": 4,
          "value": 0.0
        },
        {
          "id": 5,
          "value": 0.0
        },
        {
          "id": 6,
          "value": 0.0
        },
        {
          "id": 7,
          "value": 0.0
        },
        {
          "id": 8,
          "value": 0.0
        }
      ],
      "leftModuleId": 269,
      "rightModuleId": 272,
      "data": {
        "inputRange": 0
      },
      "pos": [
        24,
        0
      ]
    },
    {
      "id": 277,
      "plugin": "Bogaudio",
      "version": "1.1.35",
      "model": "Bogaudio-Reftone",
      "params": [
        {
          "id": 0,
          "value": 9.0
        },
        {
          "id": 1,
          "value": 4.0
        },
        {
          "id": 2,
          "value": 0.0
        }
      ],
      "rightModuleId": 275,
      "data": {},
      "pos": [
        12,
        0
      ]
    },
    {
      "id": 278,
      "plugin": "squinkylabs-plug1",
      "version": "1.0.15",
      "model": "squinkylabs-filt",
      "params": [
        {
          "id": 0,
          "value": 0.194999337
        },
        {
          "id": 1,
          "value": 0.618000388
        },
        {
          "id": 2,
          "value": 0.0
        },
        {
          "id": 3,
          "value": -0.964999914
        },
        {
          "id": 4,
          "value": 0.0
        },
        {
          "id": 5,
          "value": 0.0
        },
        {
          "id": 6,
          "value": 2.57499957
        },
        {
          "id": 7,
          "value": 0.0
        },
        {
          "id": 8,
          "value": 1.0
        },
        {
          "id": 9,
          "value": 1.0200001
        },
        {
          "id": 10,
          "value": 0.0899999514
        },
        {
          "id": 11,
          "value": 5.0
        },
        {
          "id": 12,
          "value": 0.0
        },
        {
          "id": 13,
          "value": 0.432000011
        },
        {
          "id": 14,
          "value": 0.310999781
        },
        {
          "id": 15,
          "value": 0.0
        }
      ],
      "leftModuleId": 272,
      "rightModuleId": 280,
      "pos": [
        42,
        0
      ]
    },
    {
      "id": 280,
      "plugin": "Bogaudio",
      "version": "1.1.35",
      "model": "Bogaudio-LLFO",
      "params": [
        {
          "id": 0,
          "value": 0.0
        },
        {
          "id": 1,
          "value": 1.0
        },
        {
          "id": 2,
          "value": 0.0
        },
        {
          "id": 3,
          "value": 1.0
        },
        {
          "id": 4,
          "value": 1.0
        }
      ],
      "leftModuleId": 278,
      "data": {},
      "pos": [
        56,
        0
      ]
    },
    {
      "id": 283,
      "plugin": "Bogaudio",
      "version": "1.1.35",
      "model": "Bogaudio-AddrSeq",
      "params": [
        {
          "id": 0,
          "value": 8.0
        },
        {
          "id": 1,
          "value": 1.0
        },
        {
          "id": 2,
          "value": 0.0
        },
        {
          "id": 3,
          "value": -0.890440345
        },
        {
          "id": 4,
          "value": 0.595891714
        },
        {
          "id": 5,
          "value": -0.874723196
        },
        {
          "id": 6,
          "value": -0.17033577
        },
        {
          "id": 7,
          "value": 0.900491238
        },
        {
          "id": 8,
          "value": -0.989862561
        },
        {
          "id": 9,
          "value": -0.786138773
        },
        {
          "id": 10,
          "value": 0.762331724
        }
      ],
      "leftModuleId": 284,
      "rightModuleId": 253,
      "data": {
        "poly_input": 0,
        "select_on_clock": false,
        "triggered_select": false,
        "reverse_on_negative_clock": false,
        "range_offset": 1.0,
        "range_scale": 5.0
      },
      "pos": [
        6,
        2
      ]
    },
    {
      "id": 284,
      "plugin": "Bogaudio",
      "version": "1.1.35",
      "model": "Bogaudio-AddrSeq",
      "params": [
        {
          "id": 0,
          "value": 5.83894682
        },
        {
          "id": 1,
          "value": 1.0
        },
        {
          "id": 2,
          "value": 0.0
        },
        {
          "id": 3,
          "value": -0.447183609
        },
        {
          "id": 4,
          "value": 0.0793210268
        },
        {
          "id": 5,
          "value": 0.630510688
        },
        {
          "id": 6,
          "value": -0.35800004
        },
        {
          "id": 7,
          "value": -0.573193431
        },
        {
          "id": 8,
          "value": 0.297816873
        },
        {
          "id": 9,
          "value": 0.578039408
        },
        {
          "id": 10,
          "value": 0.390666842
        }
      ],
      "rightModuleId": 283,
      "data": {
        "poly_input": 0,
        "select_on_clock": false,
        "triggered_select": false,
        "reverse_on_negative_clock": false,
        "range_offset": 1.0,
        "range_scale": 5.0
      },
      "pos": [
        0,
        2
      ]
    }
  ],
  "cables": [
    {
      "id": 204,
      "outputModuleId": 115,
      "outputId": 0,
      "inputModuleId": 28,
      "inputId": 0,
      "color": "#c91847"
    },
    {
      "id": 205,
      "outputModuleId": 115,
      "outputId": 4,
      "inputModuleId": 28,
      "inputId": 1,
      "color": "#c91847"
    },
    {
      "id": 206,
      "outputModuleId": 28,
      "outputId": 0,
      "inputModuleId": 115,
      "inputId": 0,
      "color": "#c91847"
    },
    {
      "id": 207,
      "outputModuleId": 28,
      "outputId": 1,
      "inputModuleId": 115,
      "inputId": 1,
      "color": "#c91847"
    },
    {
      "id": 219,
      "outputModuleId": 114,
      "outputId": 2,
      "inputModuleId": 126,
      "inputId": 0,
      "color": "#c91847"
    },
    {
      "id": 220,
      "outputModuleId": 114,
      "outputId": 3,
      "inputModuleId": 126,
      "inputId": 1,
      "color": "#c91847"
    },
    {
      "id": 319,
      "outputModuleId": 126,
      "outputId": 0,
      "inputModuleId": 25,
      "inputId": 0,
      "color": "#c91847"
    },
    {
      "id": 320,
      "outputModuleId": 126,
      "outputId": 1,
      "inputModuleId": 25,
      "inputId": 1,
      "color": "#c91847"
    },
    {
      "id": 560,
      "outputModuleId": 238,
      "outputId": 0,
      "inputModuleId": 241,
      "inputId": 0,
      "color": "#c9b70e"
    },
    {
      "id": 576,
      "outputModuleId": 241,
      "outputId": 0,
      "inputModuleId": 247,
      "inputId": 0,
      "color": "#c91847"
    },
    {
      "id": 577,
      "outputModuleId": 243,
      "outputId": 0,
      "inputModuleId": 247,
      "inputId": 1,
      "color": "#c91847"
    },
    {
      "id": 584,
      "outputModuleId": 248,
      "outputId": 0,
      "inputModuleId": 241,
      "inputId": 1,
      "color": "#0c8e15"
    },
    {
      "id": 585,
      "outputModuleId": 248,
      "outputId": 1,
      "inputModuleId": 243,
      "inputId": 1,
      "color": "#0c8e15"
    },
    {
      "id": 586,
      "outputModuleId": 248,
      "outputId": 2,
      "inputModuleId": 241,
      "inputId": 2,
      "color": "#0c8e15"
    },
    {
      "id": 587,
      "outputModuleId": 248,
      "outputId": 3,
      "inputModuleId": 243,
      "inputId": 2,
      "color": "#0c8e15"
    },
    {
      "id": 561,
      "outputModuleId": 238,
      "outputId": 1,
      "inputModuleId": 243,
      "inputId": 0,
      "color": "#c9b70e"
    },
    {
      "id": 589,
      "outputModuleId": 247,
      "outputId": 0,
      "inputModuleId": 250,
      "inputId": 0,
      "color": "#c91847"
    },
    {
      "id": 590,
      "outputModuleId": 247,
      "outputId": 1,
      "inputModuleId": 250,
      "inputId": 1,
      "color": "#c91847"
    },
    {
      "id": 591,
      "outputModuleId": 251,
      "outputId": 0,
      "inputModuleId": 250,
      "inputId": 2,
      "color": "#0c8e15"
    },
    {
      "id": 592,
      "outputModuleId": 238,
      "outputId": 4,
      "inputModuleId": 251,
      "inputId": 3,
      "color": "#0986ad"
    },
    {
      "id": 593,
      "outputModuleId": 24,
      "outputId": 0,
      "inputModuleId": 252,
      "inputId": 7,
      "color": "#0986ad"
    },
    {
      "id": 581,
      "outputModuleId": 252,
      "outputId": 1,
      "inputModuleId": 114,
      "inputId": 1,
      "color": "#c91847"
    },
    {
      "id": 580,
      "outputModuleId": 252,
      "outputId": 0,
      "inputModuleId": 114,
      "inputId": 0,
      "color": "#c91847"
    },
    {
      "id": 594,
      "outputModuleId": 250,
      "outputId": 0,
      "inputModuleId": 252,
      "inputId": 5,
      "color": "#c91847"
    },
    {
      "id": 595,
      "outputModuleId": 250,
      "outputId": 1,
      "inputModuleId": 252,
      "inputId": 6,
      "color": "#c91847"
    },
    {
      "id": 598,
      "outputModuleId": 238,
      "outputId": 2,
      "inputModuleId": 251,
      "inputId": 2,
      "color": "#0c8e15"
    },
    {
      "id": 557,
      "outputModuleId": 24,
      "outputId": 1,
      "inputModuleId": 253,
      "inputId": 0,
      "color": "#0986ad"
    },
    {
      "id": 559,
      "outputModuleId": 253,
      "outputId": 0,
      "inputModuleId": 238,
      "inputId": 0,
      "color": "#c9b70e"
    },
    {
      "id": 558,
      "outputModuleId": 24,
      "outputId": 4,
      "inputModuleId": 253,
      "inputId": 1,
      "color": "#0986ad"
    },
    {
      "id": 605,
      "outputModuleId": 248,
      "outputId": 4,
      "inputModuleId": 247,
      "inputId": 2,
      "color": "#0c8e15"
    },
    {
      "id": 606,
      "outputModuleId": 24,
      "outputId": 2,
      "inputModuleId": 258,
      "inputId": 0,
      "color": "#0986ad"
    },
    {
      "id": 607,
      "outputModuleId": 24,
      "outputId": 4,
      "inputModuleId": 258,
      "inputId": 1,
      "color": "#0986ad"
    },
    {
      "id": 608,
      "outputModuleId": 258,
      "outputId": 0,
      "inputModuleId": 257,
      "inputId": 0,
      "color": "#0c8e15"
    },
    {
      "id": 609,
      "outputModuleId": 257,
      "outputId": 1,
      "inputModuleId": 261,
      "inputId": 7,
      "color": "#c9b70e"
    },
    {
      "id": 610,
      "outputModuleId": 257,
      "outputId": 2,
      "inputModuleId": 262,
      "inputId": 7,
      "color": "#c9b70e"
    },
    {
      "id": 611,
      "outputModuleId": 257,
      "outputId": 4,
      "inputModuleId": 261,
      "inputId": 5,
      "color": "#0986ad"
    },
    {
      "id": 612,
      "outputModuleId": 257,
      "outputId": 4,
      "inputModuleId": 262,
      "inputId": 5,
      "color": "#0986ad"
    },
    {
      "id": 620,
      "outputModuleId": 24,
      "outputId": 4,
      "inputModuleId": 266,
      "inputId": 2,
      "color": "#0986ad"
    },
    {
      "id": 615,
      "outputModuleId": 264,
      "outputId": 0,
      "inputModuleId": 266,
      "inputId": 6,
      "color": "#0c8e15"
    },
    {
      "id": 621,
      "outputModuleId": 264,
      "outputId": 0,
      "inputModuleId": 266,
      "inputId": 11,
      "color": "#0c8e15"
    },
    {
      "id": 622,
      "outputModuleId": 24,
      "outputId": 1,
      "inputModuleId": 266,
      "inputId": 1,
      "color": "#0986ad"
    },
    {
      "id": 623,
      "outputModuleId": 24,
      "outputId": 0,
      "inputModuleId": 267,
      "inputId": 7,
      "color": "#0986ad"
    },
    {
      "id": 614,
      "outputModuleId": 267,
      "outputId": 1,
      "inputModuleId": 114,
      "inputId": 3,
      "color": "#c91847"
    },
    {
      "id": 613,
      "outputModuleId": 267,
      "outputId": 0,
      "inputModuleId": 114,
      "inputId": 2,
      "color": "#c91847"
    },
    {
      "id": 624,
      "outputModuleId": 261,
      "outputId": 0,
      "inputModuleId": 267,
      "inputId": 5,
      "color": "#c91847"
    },
    {
      "id": 625,
      "outputModuleId": 262,
      "outputId": 0,
      "inputModuleId": 267,
      "inputId": 6,
      "color": "#c91847"
    },
    {
      "id": 626,
      "outputModuleId": 257,
      "outputId": 4,
      "inputModuleId": 268,
      "inputId": 0,
      "color": "#0986ad"
    },
    {
      "id": 627,
      "outputModuleId": 268,
      "outputId": 0,
      "inputModuleId": 261,
      "inputId": 1,
      "color": "#0c8e15"
    },
    {
      "id": 628,
      "outputModuleId": 268,
      "outputId": 1,
      "inputModuleId": 262,
      "inputId": 1,
      "color": "#0c8e15"
    },
    {
      "id": 635,
      "outputModuleId": 269,
      "outputId": 0,
      "inputModuleId": 276,
      "inputId": 0,
      "color": "#c9b70e"
    },
    {
      "id": 639,
      "outputModuleId": 269,
      "outputId": 0,
      "inputModuleId": 276,
      "inputId": 1,
      "color": "#c9b70e"
    },
    {
      "id": 637,
      "outputModuleId": 274,
      "outputId": 0,
      "inputModuleId": 276,
      "inputId": 2,
      "color": "#c9b70e"
    },
    {
      "id": 638,
      "outputModuleId": 275,
      "outputId": 0,
      "inputModuleId": 276,
      "inputId": 3,
      "color": "#c9b70e"
    },
    {
      "id": 640,
      "outputModuleId": 276,
      "outputId": 0,
      "inputModuleId": 272,
      "inputId": 0,
      "color": "#c9b70e"
    },
    {
      "id": 641,
      "outputModuleId": 277,
      "outputId": 0,
      "inputModuleId": 276,
      "inputId": 4,
      "color": "#c9b70e"
    },
    {
      "id": 642,
      "outputModuleId": 277,
      "outputId": 0,
      "inputModuleId": 276,
      "inputId": 5,
      "color": "#c9b70e"
    },
    {
      "id": 643,
      "outputModuleId": 24,
      "outputId": 3,
      "inputModuleId": 276,
      "inputId": 9,
      "color": "#0986ad"
    },
    {
      "id": 644,
      "outputModuleId": 24,
      "outputId": 4,
      "inputModuleId": 276,
      "inputId": 11,
      "color": "#0986ad"
    },
    {
      "id": 633,
      "outputModuleId": 278,
      "outputId": 0,
      "inputModuleId": 114,
      "inputId": 4,
      "color": "#c91847"
    },
    {
      "id": 634,
      "outputModuleId": 278,
      "outputId": 1,
      "inputModuleId": 114,
      "inputId": 5,
      "color": "#c91847"
    },
    {
      "id": 645,
      "outputModuleId": 272,
      "outputId": 1,
      "inputModuleId": 278,
      "inputId": 0,
      "color": "#c91847"
    },
    {
      "id": 646,
      "outputModuleId": 272,
      "outputId": 0,
      "inputModuleId": 278,
      "inputId": 1,
      "color": "#c91847"
    },
    {
      "id": 647,
      "outputModuleId": 280,
      "outputId": 0,
      "inputModuleId": 278,
      "inputId": 2,
      "color": "#0c8e15"
    },
    {
      "id": 655,
      "outputModuleId": 24,
      "outputId": 1,
      "inputModuleId": 283,
      "inputId": 0,
      "color": "#0c8e15"
    },
    {
      "id": 656,
      "outputModuleId": 24,
      "outputId": 4,
      "inputModuleId": 283,
      "inputId": 1,
      "color": "#c91847"
    },
    {
      "id": 657,
      "outputModuleId": 283,
      "outputId": 0,
      "inputModuleId": 238,
      "inputId": 2,
      "color": "#0986ad"
    },
    {
      "id": 658,
      "outputModuleId": 24,
      "outputId": 0,
      "inputModuleId": 284,
      "inputId": 0,
      "color": "#c9b70e"
    },
    {
      "id": 659,
      "outputModuleId": 24,
      "outputId": 4,
      "inputModuleId": 284,
      "inputId": 1,
      "color": "#0c8e15"
    },
    {
      "id": 660,
      "outputModuleId": 284,
      "outputId": 0,
      "inputModuleId": 238,
      "inputId": 3,
      "color": "#c91847"
    },
    {
      "id": 661,
      "outputModuleId": 266,
      "outputId": 0,
      "inputModuleId": 257,
      "inputId": 2,
      "color": "#0986ad"
    }
  ]
}